<svg xmlns="http://www.w3.org/2000/svg" xmlns:xlink="http://www.w3.org/1999/xlink" width="1920" zoomAndPan="magnify" viewBox="0 0 1440 809.999993" height="1080" preserveAspectRatio="xMidYMid meet" version="1.0"><defs><clipPath id="f378cfcdf3"><path d="M 712 232.132812 L 893 232.132812 L 893 429 L 712 429 Z M 712 232.132812 " clip-rule="nonzero"/></clipPath><clipPath id="8b3f67e979"><path d="M 547 283 L 744 283 L 744 577.882812 L 547 577.882812 Z M 547 283 " clip-rule="nonzero"/></clipPath></defs><g clip-path="url(#f378cfcdf3)"><path fill="#000000" d="M 888.304688 307.734375 L 871.46875 303.527344 C 870.433594 300.53125 869.226562 297.535156 867.789062 294.65625 L 876.695312 279.730469 C 878.078125 277.480469 877.675781 274.542969 875.835938 272.699219 L 852.21875 249.015625 C 850.378906 247.171875 847.449219 246.769531 845.207031 248.152344 L 830.324219 257.140625 C 827.453125 255.699219 824.464844 254.488281 821.476562 253.453125 L 817.28125 236.570312 C 816.648438 234.03125 814.351562 232.1875 811.707031 232.1875 L 778.265625 232.1875 C 775.621094 232.1875 773.324219 233.976562 772.691406 236.570312 L 768.496094 253.453125 C 765.507812 254.488281 762.519531 255.699219 759.648438 257.140625 L 744.765625 248.152344 C 742.523438 246.769531 739.59375 247.171875 737.753906 249.015625 L 714.140625 272.699219 C 712.300781 274.542969 711.898438 277.480469 713.277344 279.730469 L 722.183594 294.65625 C 721.722656 295.632812 721.265625 296.613281 720.863281 297.652344 C 719.65625 300.589844 721.089844 303.988281 724.023438 305.140625 C 726.953125 306.351562 730.34375 304.910156 731.492188 301.972656 C 732.183594 300.300781 732.984375 298.6875 733.847656 297.191406 C 734.824219 295.402344 734.765625 293.269531 733.734375 291.484375 L 725.457031 277.65625 L 742.753906 260.308594 L 756.546875 268.609375 C 758.269531 269.644531 760.453125 269.703125 762.234375 268.722656 C 766.3125 266.476562 770.625 264.6875 774.992188 263.421875 C 776.945312 262.84375 778.4375 261.289062 778.957031 259.273438 L 782.863281 243.65625 L 807.339844 243.65625 L 811.25 259.273438 C 811.765625 261.230469 813.261719 262.789062 815.214844 263.421875 C 819.582031 264.746094 823.890625 266.535156 827.96875 268.722656 C 829.75 269.703125 831.933594 269.644531 833.660156 268.609375 L 847.449219 260.308594 L 864.746094 277.65625 L 856.472656 291.484375 C 855.4375 293.214844 855.378906 295.402344 856.355469 297.191406 C 858.597656 301.28125 860.378906 305.601562 861.640625 309.984375 C 862.21875 311.941406 863.769531 313.441406 865.78125 313.957031 L 881.351562 317.878906 L 881.351562 342.425781 L 865.78125 346.34375 C 863.824219 346.863281 862.273438 348.359375 861.640625 350.320312 C 860.320312 354.699219 858.539062 359.023438 856.355469 363.113281 C 855.378906 364.898438 855.4375 367.089844 856.472656 368.816406 L 864.746094 382.648438 L 847.449219 399.992188 L 833.660156 391.695312 C 831.933594 390.65625 829.75 390.601562 827.96875 391.578125 C 823.890625 393.828125 819.582031 395.613281 815.214844 396.882812 C 813.261719 397.457031 811.765625 399.011719 811.25 401.03125 L 807.339844 416.648438 L 782.863281 416.648438 L 778.957031 401.03125 C 778.4375 399.070312 777 397.515625 775.046875 396.9375 C 770.507812 395.554688 766.257812 393.828125 762.40625 391.695312 C 759.648438 390.195312 756.144531 391.175781 754.589844 394 C 753.039062 396.765625 754.074219 400.28125 756.890625 401.835938 C 760.511719 403.855469 764.417969 405.582031 768.613281 406.964844 L 772.808594 423.851562 C 773.4375 426.386719 775.738281 428.230469 778.378906 428.230469 L 811.824219 428.230469 C 814.464844 428.230469 816.765625 426.441406 817.398438 423.851562 L 821.589844 406.964844 C 824.578125 405.929688 827.566406 404.71875 830.441406 403.277344 L 845.324219 412.265625 C 847.5625 413.648438 850.496094 413.246094 852.332031 411.402344 L 875.949219 387.71875 C 877.789062 385.875 878.191406 382.9375 876.8125 380.6875 L 867.90625 365.761719 C 869.285156 362.882812 870.546875 359.886719 871.582031 356.890625 L 888.417969 352.683594 C 890.949219 352.050781 892.785156 349.742188 892.785156 347.09375 L 892.785156 313.554688 C 892.785156 310.90625 891.003906 308.601562 888.417969 307.964844 Z M 888.304688 307.734375 " fill-opacity="1" fill-rule="nonzero"/></g><path fill="#000000" d="M 794.988281 370.429688 C 817.167969 370.429688 835.210938 352.335938 835.210938 330.09375 C 835.210938 307.851562 817.167969 289.757812 794.988281 289.757812 C 772.808594 289.757812 754.765625 307.851562 754.765625 330.09375 C 754.765625 352.335938 772.808594 370.429688 794.988281 370.429688 Z M 794.988281 301.28125 C 810.847656 301.28125 823.71875 314.1875 823.71875 330.09375 C 823.71875 346 810.847656 358.90625 794.988281 358.90625 C 779.128906 358.90625 766.257812 346 766.257812 330.09375 C 766.257812 314.1875 779.128906 301.28125 794.988281 301.28125 Z M 794.988281 301.28125 " fill-opacity="1" fill-rule="nonzero"/><g clip-path="url(#8b3f67e979)"><path fill="#000000" d="M 640.875 284.109375 C 591.402344 286.414062 550.660156 327.097656 548.019531 376.65625 C 546.464844 406.160156 558.074219 434.511719 579.910156 454.390625 C 587.609375 461.421875 592.4375 470.929688 593.585938 481.070312 C 587.035156 483.550781 582.378906 489.832031 582.378906 497.207031 C 582.378906 506.714844 590.136719 514.492188 599.617188 514.492188 L 599.617188 531.78125 C 599.617188 541.289062 607.375 549.070312 616.855469 549.070312 C 616.855469 564.972656 629.726562 577.882812 645.585938 577.882812 C 661.445312 577.882812 674.316406 564.972656 674.316406 549.070312 C 683.800781 549.070312 691.554688 541.289062 691.554688 531.78125 L 691.554688 514.492188 C 701.039062 514.492188 708.796875 506.714844 708.796875 497.207031 C 708.796875 489.773438 704.082031 483.492188 697.53125 481.070312 C 698.625 470.871094 703.277344 461.535156 710.632812 454.910156 C 731.378906 436.355469 743.214844 409.789062 743.214844 381.957031 C 743.214844 354.125 732.46875 329.746094 712.933594 311.078125 C 693.453125 292.40625 667.769531 282.839844 640.816406 284.109375 Z M 645.585938 566.355469 C 636.105469 566.355469 628.347656 558.578125 628.347656 549.070312 L 662.824219 549.070312 C 662.824219 558.578125 655.070312 566.355469 645.585938 566.355469 Z M 680.0625 531.78125 C 680.0625 534.949219 677.480469 537.542969 674.316406 537.542969 L 616.855469 537.542969 C 613.695312 537.542969 611.109375 534.949219 611.109375 531.78125 L 611.109375 514.492188 L 680.0625 514.492188 Z M 691.554688 502.96875 L 599.617188 502.96875 C 596.457031 502.96875 593.871094 500.375 593.871094 497.207031 C 593.871094 494.035156 596.457031 491.445312 599.617188 491.445312 L 691.554688 491.445312 C 694.71875 491.445312 697.304688 494.035156 697.304688 497.207031 C 697.304688 500.375 694.71875 502.96875 691.554688 502.96875 Z M 702.992188 446.265625 C 693.453125 454.792969 687.476562 466.835938 686.097656 479.917969 L 674.316406 479.917969 L 674.316406 416.53125 L 681.097656 416.53125 C 683.453125 423.214844 689.773438 428.054688 697.304688 428.054688 C 706.785156 428.054688 714.542969 420.277344 714.542969 410.769531 C 714.542969 401.261719 706.785156 393.480469 697.304688 393.480469 C 689.832031 393.480469 683.511719 398.320312 681.097656 405.007812 L 668.570312 405.007812 C 665.410156 405.007812 662.824219 407.597656 662.824219 410.769531 L 662.824219 479.917969 L 651.332031 479.917969 L 651.332031 357.867188 C 658 355.507812 662.824219 349.167969 662.824219 341.617188 C 662.824219 332.109375 655.070312 324.332031 645.585938 324.332031 C 636.105469 324.332031 628.347656 332.109375 628.347656 341.617188 C 628.347656 349.109375 633.175781 355.449219 639.839844 357.867188 L 639.839844 479.917969 L 628.347656 479.917969 L 628.347656 381.957031 C 628.347656 378.785156 625.761719 376.195312 622.601562 376.195312 L 610.078125 376.195312 C 607.71875 369.507812 601.398438 364.667969 593.871094 364.667969 C 584.390625 364.667969 576.632812 372.449219 576.632812 381.957031 C 576.632812 391.464844 584.390625 399.242188 593.871094 399.242188 C 601.34375 399.242188 607.664062 394.402344 610.078125 387.71875 L 616.855469 387.71875 L 616.855469 479.917969 L 605.078125 479.917969 C 603.640625 466.953125 597.492188 454.792969 587.667969 445.863281 C 568.417969 428.34375 558.132812 403.335938 559.511719 377.289062 C 561.808594 333.550781 597.78125 297.707031 641.394531 295.632812 C 665.238281 294.539062 687.820312 302.953125 705.058594 319.433594 C 722.296875 335.914062 731.78125 358.097656 731.78125 381.957031 C 731.78125 405.8125 721.320312 429.898438 702.992188 446.265625 Z M 691.554688 410.769531 C 691.554688 407.597656 694.140625 405.007812 697.304688 405.007812 C 700.464844 405.007812 703.050781 407.597656 703.050781 410.769531 C 703.050781 413.9375 700.464844 416.53125 697.304688 416.53125 C 694.140625 416.53125 691.554688 413.9375 691.554688 410.769531 Z M 645.585938 347.382812 C 642.425781 347.382812 639.839844 344.789062 639.839844 341.617188 C 639.839844 338.449219 642.425781 335.855469 645.585938 335.855469 C 648.746094 335.855469 651.332031 338.449219 651.332031 341.617188 C 651.332031 344.789062 648.746094 347.382812 645.585938 347.382812 Z M 599.617188 381.957031 C 599.617188 385.125 597.03125 387.71875 593.871094 387.71875 C 590.710938 387.71875 588.125 385.125 588.125 381.957031 C 588.125 378.785156 590.710938 376.195312 593.871094 376.195312 C 597.03125 376.195312 599.617188 378.785156 599.617188 381.957031 Z M 599.617188 381.957031 " fill-opacity="1" fill-rule="nonzero"/></g></svg>