<svg xmlns="http://www.w3.org/2000/svg" xmlns:xlink="http://www.w3.org/1999/xlink" width="500" zoomAndPan="magnify" viewBox="0 0 375 374.999991" height="500" preserveAspectRatio="xMidYMid meet" version="1.0"><defs><g/></defs><path fill="#ffffff" d="M 212.5 362.5 L 212.5 337.5 C 212.5 334.058594 215.308594 331.25 218.75 331.25 L 356.25 331.25 C 359.691406 331.25 362.5 334.058594 362.5 337.5 L 362.523438 362.5 Z M 225 312.5 C 225 309.058594 227.808594 306.25 231.25 306.25 L 343.75 306.25 C 347.191406 306.25 350 309.058594 350 312.5 L 350 318.75 L 225 318.75 Z M 262.402344 212.5 L 312.597656 212.5 C 313.792969 250.660156 325.757812 279.539062 333.007812 293.75 L 241.992188 293.75 C 249.242188 279.539062 261.207031 250.660156 262.402344 212.5 Z M 25 243.75 C 21.558594 243.75 18.75 240.941406 18.75 237.5 L 18.75 148.609375 C 33.789062 152.222656 61.644531 155.933594 112.5 156.226562 L 112.5 162.5 C 112.5 172.851562 120.898438 181.25 131.25 181.25 L 143.75 181.25 C 154.101562 181.25 162.5 172.851562 162.5 162.5 L 162.5 156.199219 C 193.53125 156.03125 218.945312 154.566406 238.207031 151.855469 C 239.695312 160.984375 243.652344 169.359375 249.609375 176.269531 C 242.554688 178.980469 237.5 185.765625 237.5 193.75 C 237.5 201.832031 242.675781 208.691406 249.851562 211.304688 C 249.535156 223.070312 248.144531 233.984375 246.09375 243.75 Z M 150 150 L 150 162.5 C 150 165.941406 147.191406 168.75 143.75 168.75 L 131.25 168.75 C 127.808594 168.75 125 165.941406 125 162.5 L 125 150 C 125 146.558594 127.808594 143.75 131.25 143.75 L 143.75 143.75 C 147.191406 143.75 150 146.558594 150 150 Z M 12.5 68.75 C 12.5 65.308594 15.308594 62.5 18.75 62.5 L 256.25 62.5 C 259.691406 62.5 262.5 65.308594 262.5 68.75 L 262.5 100.511719 C 248.804688 108.472656 239.207031 122.703125 237.71875 139.28125 C 218.652344 142.089844 193.042969 143.578125 161.351562 143.726562 C 158.738281 136.472656 151.878906 131.25 143.75 131.25 L 131.25 131.25 C 123.121094 131.25 116.257812 136.472656 113.648438 143.726562 C 54.027344 143.433594 27.585938 138.355469 17.066406 135.253906 C 14.332031 134.449219 12.5 132.007812 12.5 129.175781 Z M 175 50 L 100 50 L 100 37.5 L 175 37.5 Z M 75 31.25 C 75 20.898438 83.398438 12.5 93.75 12.5 L 181.25 12.5 C 191.601562 12.5 200 20.898438 200 31.25 L 200 50 L 187.5 50 L 187.5 37.5 C 187.5 30.617188 181.882812 25 175 25 L 100 25 C 93.113281 25 87.5 30.617188 87.5 37.5 L 87.5 50 L 75 50 Z M 325 143.75 C 325 156.492188 318.675781 168.042969 308.105469 175 L 266.894531 175 C 256.324219 168.042969 250 156.492188 250 143.75 C 250 123.070312 266.820312 106.25 287.5 106.25 C 308.179688 106.25 325 123.070312 325 143.75 Z M 250 193.75 C 250 190.308594 252.808594 187.5 256.25 187.5 L 318.75 187.5 C 322.191406 187.5 325 190.308594 325 193.75 C 325 197.191406 322.191406 200 318.75 200 L 256.25 200 C 252.808594 200 250 197.191406 250 193.75 Z M 362.5 319.898438 L 362.5 312.5 C 362.5 303.441406 356.054688 295.875 347.507812 294.117188 C 342.554688 285.621094 326.367188 254.492188 325.144531 211.304688 C 332.324219 208.691406 337.5 201.832031 337.5 193.75 C 337.5 185.765625 332.445312 178.980469 325.390625 176.269531 C 333.082031 167.359375 337.5 155.980469 337.5 143.75 C 337.5 116.1875 315.0625 93.75 287.5 93.75 C 283.179688 93.75 279.003906 94.359375 275 95.410156 L 275 68.75 C 275 58.398438 266.601562 50 256.25 50 L 212.5 50 L 212.5 31.25 C 212.5 14.015625 198.484375 0 181.25 0 L 93.75 0 C 76.515625 0 62.5 14.015625 62.5 31.25 L 62.5 50 L 18.75 50 C 8.398438 50 0 58.398438 0 68.75 L 0 129.175781 C 0 134.714844 2.367188 139.695312 6.25 143.164062 L 6.25 237.5 C 6.25 247.851562 14.648438 256.25 25 256.25 L 243.015625 256.25 C 237.574219 275.585938 230.492188 288.988281 227.488281 294.117188 C 218.945312 295.875 212.5 303.441406 212.5 312.5 L 212.5 319.898438 C 205.25 322.484375 200 329.371094 200 337.5 L 200 362.5 C 200 369.382812 205.613281 375 212.5 375 L 362.5 375 C 369.382812 375 375 369.382812 375 362.5 L 375 337.5 C 375 329.371094 369.75 322.484375 362.5 319.898438 " fill-opacity="1" fill-rule="nonzero"/><g fill="#ffffff" fill-opacity="1"><g transform="translate(167.381946, 251.727838)"><g><path d="M 1.421875 -1.21875 L 1.421875 -0.0625 C 1.421875 -0.0507812 1.414062 -0.0390625 1.40625 -0.03125 C 1.394531 -0.0195312 1.378906 -0.0078125 1.359375 0 C 1.347656 0 1.328125 0 1.296875 0 C 1.273438 0.0078125 1.242188 0.015625 1.203125 0.015625 C 1.160156 0.015625 1.125 0.0078125 1.09375 0 C 1.070312 0 1.050781 0 1.03125 0 C 1.019531 -0.0078125 1.007812 -0.0195312 1 -0.03125 C 1 -0.0390625 1 -0.0507812 1 -0.0625 L 1 -1.21875 L 0.109375 -2.984375 C 0.0859375 -3.015625 0.078125 -3.039062 0.078125 -3.0625 C 0.078125 -3.082031 0.0820312 -3.097656 0.09375 -3.109375 C 0.101562 -3.128906 0.125 -3.140625 0.15625 -3.140625 C 0.1875 -3.140625 0.226562 -3.140625 0.28125 -3.140625 C 0.332031 -3.140625 0.367188 -3.140625 0.390625 -3.140625 C 0.421875 -3.140625 0.445312 -3.132812 0.46875 -3.125 C 0.488281 -3.125 0.503906 -3.117188 0.515625 -3.109375 C 0.523438 -3.097656 0.53125 -3.082031 0.53125 -3.0625 L 0.96875 -2.15625 C 1.007812 -2.070312 1.050781 -1.984375 1.09375 -1.890625 C 1.132812 -1.796875 1.175781 -1.703125 1.21875 -1.609375 C 1.257812 -1.703125 1.296875 -1.789062 1.328125 -1.875 C 1.367188 -1.96875 1.410156 -2.0625 1.453125 -2.15625 L 1.890625 -3.0625 C 1.890625 -3.070312 1.894531 -3.082031 1.90625 -3.09375 C 1.914062 -3.113281 1.925781 -3.125 1.9375 -3.125 C 1.957031 -3.132812 1.976562 -3.140625 2 -3.140625 C 2.03125 -3.140625 2.066406 -3.140625 2.109375 -3.140625 C 2.171875 -3.140625 2.21875 -3.132812 2.25 -3.125 C 2.28125 -3.125 2.300781 -3.117188 2.3125 -3.109375 C 2.332031 -3.097656 2.335938 -3.082031 2.328125 -3.0625 C 2.328125 -3.039062 2.316406 -3.015625 2.296875 -2.984375 Z M 1.421875 -1.21875 "/></g></g></g><g fill="#ffffff" fill-opacity="1"><g transform="translate(169.795848, 251.727838)"><g><path d="M 2.390625 -1.171875 C 2.390625 -0.992188 2.363281 -0.828125 2.3125 -0.671875 C 2.269531 -0.523438 2.203125 -0.398438 2.109375 -0.296875 C 2.015625 -0.191406 1.898438 -0.109375 1.765625 -0.046875 C 1.628906 0.015625 1.46875 0.046875 1.28125 0.046875 C 1.101562 0.046875 0.945312 0.0195312 0.8125 -0.03125 C 0.675781 -0.0820312 0.5625 -0.160156 0.46875 -0.265625 C 0.382812 -0.367188 0.320312 -0.492188 0.28125 -0.640625 C 0.238281 -0.785156 0.21875 -0.945312 0.21875 -1.125 C 0.21875 -1.300781 0.238281 -1.460938 0.28125 -1.609375 C 0.332031 -1.765625 0.40625 -1.894531 0.5 -2 C 0.59375 -2.113281 0.707031 -2.195312 0.84375 -2.25 C 0.976562 -2.3125 1.140625 -2.34375 1.328125 -2.34375 C 1.503906 -2.34375 1.660156 -2.316406 1.796875 -2.265625 C 1.929688 -2.210938 2.039062 -2.132812 2.125 -2.03125 C 2.21875 -1.925781 2.285156 -1.800781 2.328125 -1.65625 C 2.367188 -1.519531 2.390625 -1.359375 2.390625 -1.171875 Z M 1.96875 -1.140625 C 1.96875 -1.265625 1.957031 -1.378906 1.9375 -1.484375 C 1.914062 -1.585938 1.878906 -1.675781 1.828125 -1.75 C 1.785156 -1.832031 1.71875 -1.894531 1.625 -1.9375 C 1.539062 -1.988281 1.4375 -2.015625 1.3125 -2.015625 C 1.195312 -2.015625 1.09375 -1.992188 1 -1.953125 C 0.914062 -1.910156 0.847656 -1.847656 0.796875 -1.765625 C 0.742188 -1.691406 0.703125 -1.601562 0.671875 -1.5 C 0.648438 -1.394531 0.640625 -1.28125 0.640625 -1.15625 C 0.640625 -1.039062 0.648438 -0.925781 0.671875 -0.8125 C 0.691406 -0.707031 0.726562 -0.613281 0.78125 -0.53125 C 0.832031 -0.457031 0.898438 -0.398438 0.984375 -0.359375 C 1.066406 -0.316406 1.171875 -0.296875 1.296875 -0.296875 C 1.410156 -0.296875 1.507812 -0.316406 1.59375 -0.359375 C 1.6875 -0.398438 1.757812 -0.457031 1.8125 -0.53125 C 1.863281 -0.601562 1.898438 -0.691406 1.921875 -0.796875 C 1.953125 -0.898438 1.96875 -1.015625 1.96875 -1.140625 Z M 1.96875 -1.140625 "/></g></g></g><g fill="#ffffff" fill-opacity="1"><g transform="translate(172.408086, 251.727838)"><g><path d="M 2.234375 -0.0625 C 2.234375 -0.0507812 2.226562 -0.0390625 2.21875 -0.03125 C 2.21875 -0.0195312 2.207031 -0.0078125 2.1875 0 C 2.175781 0 2.160156 0 2.140625 0 C 2.117188 0.0078125 2.085938 0.015625 2.046875 0.015625 C 2.015625 0.015625 1.984375 0.0078125 1.953125 0 C 1.929688 0 1.914062 0 1.90625 0 C 1.894531 -0.0078125 1.882812 -0.0195312 1.875 -0.03125 C 1.875 -0.0390625 1.875 -0.0507812 1.875 -0.0625 L 1.875 -0.34375 C 1.75 -0.207031 1.625 -0.109375 1.5 -0.046875 C 1.382812 0.015625 1.265625 0.046875 1.140625 0.046875 C 0.992188 0.046875 0.867188 0.0234375 0.765625 -0.015625 C 0.671875 -0.0664062 0.59375 -0.132812 0.53125 -0.21875 C 0.46875 -0.300781 0.421875 -0.394531 0.390625 -0.5 C 0.367188 -0.613281 0.359375 -0.753906 0.359375 -0.921875 L 0.359375 -2.234375 C 0.359375 -2.242188 0.359375 -2.253906 0.359375 -2.265625 C 0.367188 -2.273438 0.378906 -2.285156 0.390625 -2.296875 C 0.410156 -2.304688 0.429688 -2.3125 0.453125 -2.3125 C 0.484375 -2.3125 0.519531 -2.3125 0.5625 -2.3125 C 0.59375 -2.3125 0.617188 -2.3125 0.640625 -2.3125 C 0.671875 -2.3125 0.691406 -2.304688 0.703125 -2.296875 C 0.722656 -2.285156 0.738281 -2.273438 0.75 -2.265625 C 0.757812 -2.253906 0.765625 -2.242188 0.765625 -2.234375 L 0.765625 -0.96875 C 0.765625 -0.84375 0.769531 -0.738281 0.78125 -0.65625 C 0.800781 -0.582031 0.828125 -0.519531 0.859375 -0.46875 C 0.898438 -0.414062 0.953125 -0.375 1.015625 -0.34375 C 1.078125 -0.3125 1.144531 -0.296875 1.21875 -0.296875 C 1.320312 -0.296875 1.421875 -0.332031 1.515625 -0.40625 C 1.617188 -0.476562 1.722656 -0.582031 1.828125 -0.71875 L 1.828125 -2.234375 C 1.828125 -2.242188 1.828125 -2.253906 1.828125 -2.265625 C 1.835938 -2.273438 1.851562 -2.285156 1.875 -2.296875 C 1.894531 -2.304688 1.914062 -2.3125 1.9375 -2.3125 C 1.957031 -2.3125 1.988281 -2.3125 2.03125 -2.3125 C 2.070312 -2.3125 2.101562 -2.3125 2.125 -2.3125 C 2.15625 -2.3125 2.175781 -2.304688 2.1875 -2.296875 C 2.207031 -2.285156 2.21875 -2.273438 2.21875 -2.265625 C 2.226562 -2.253906 2.234375 -2.242188 2.234375 -2.234375 Z M 2.234375 -0.0625 "/></g></g></g><g fill="#ffffff" fill-opacity="1"><g transform="translate(175.01065, 251.727838)"><g><path d="M 1.640625 -2.09375 C 1.640625 -2.0625 1.640625 -2.03125 1.640625 -2 C 1.640625 -1.976562 1.632812 -1.957031 1.625 -1.9375 C 1.625 -1.925781 1.617188 -1.914062 1.609375 -1.90625 C 1.597656 -1.90625 1.585938 -1.90625 1.578125 -1.90625 C 1.566406 -1.90625 1.550781 -1.90625 1.53125 -1.90625 C 1.507812 -1.914062 1.488281 -1.925781 1.46875 -1.9375 C 1.445312 -1.945312 1.421875 -1.953125 1.390625 -1.953125 C 1.359375 -1.960938 1.328125 -1.96875 1.296875 -1.96875 C 1.253906 -1.96875 1.210938 -1.957031 1.171875 -1.9375 C 1.140625 -1.925781 1.101562 -1.898438 1.0625 -1.859375 C 1.019531 -1.828125 0.972656 -1.78125 0.921875 -1.71875 C 0.878906 -1.65625 0.828125 -1.582031 0.765625 -1.5 L 0.765625 -0.0625 C 0.765625 -0.0507812 0.757812 -0.0390625 0.75 -0.03125 C 0.75 -0.0195312 0.738281 -0.0078125 0.71875 0 C 0.707031 0 0.6875 0 0.65625 0 C 0.632812 0.0078125 0.601562 0.015625 0.5625 0.015625 C 0.53125 0.015625 0.5 0.0078125 0.46875 0 C 0.445312 0 0.425781 0 0.40625 0 C 0.394531 -0.0078125 0.382812 -0.0195312 0.375 -0.03125 C 0.375 -0.0390625 0.375 -0.0507812 0.375 -0.0625 L 0.375 -2.234375 C 0.375 -2.242188 0.375 -2.253906 0.375 -2.265625 C 0.382812 -2.273438 0.394531 -2.285156 0.40625 -2.296875 C 0.414062 -2.304688 0.429688 -2.3125 0.453125 -2.3125 C 0.484375 -2.3125 0.515625 -2.3125 0.546875 -2.3125 C 0.585938 -2.3125 0.617188 -2.3125 0.640625 -2.3125 C 0.660156 -2.3125 0.675781 -2.304688 0.6875 -2.296875 C 0.707031 -2.285156 0.71875 -2.273438 0.71875 -2.265625 C 0.726562 -2.253906 0.734375 -2.242188 0.734375 -2.234375 L 0.734375 -1.921875 C 0.785156 -2.003906 0.835938 -2.070312 0.890625 -2.125 C 0.953125 -2.1875 1.003906 -2.234375 1.046875 -2.265625 C 1.097656 -2.296875 1.144531 -2.316406 1.1875 -2.328125 C 1.226562 -2.335938 1.273438 -2.34375 1.328125 -2.34375 C 1.347656 -2.34375 1.367188 -2.34375 1.390625 -2.34375 C 1.421875 -2.34375 1.453125 -2.335938 1.484375 -2.328125 C 1.515625 -2.316406 1.539062 -2.304688 1.5625 -2.296875 C 1.582031 -2.296875 1.597656 -2.289062 1.609375 -2.28125 C 1.617188 -2.269531 1.625 -2.257812 1.625 -2.25 C 1.625 -2.25 1.625 -2.242188 1.625 -2.234375 C 1.632812 -2.222656 1.640625 -2.207031 1.640625 -2.1875 C 1.640625 -2.164062 1.640625 -2.132812 1.640625 -2.09375 Z M 1.640625 -2.09375 "/></g></g></g><g fill="#ffffff" fill-opacity="1"><g transform="translate(176.737629, 251.727838)"><g/></g></g><g fill="#ffffff" fill-opacity="1"><g transform="translate(177.857506, 251.727838)"><g><path d="M 2.375 -1.1875 C 2.375 -0.988281 2.351562 -0.8125 2.3125 -0.65625 C 2.269531 -0.507812 2.207031 -0.382812 2.125 -0.28125 C 2.050781 -0.175781 1.953125 -0.09375 1.828125 -0.03125 C 1.710938 0.0195312 1.578125 0.046875 1.421875 0.046875 C 1.359375 0.046875 1.300781 0.0351562 1.25 0.015625 C 1.195312 0.00390625 1.144531 -0.0078125 1.09375 -0.03125 C 1.039062 -0.0625 0.988281 -0.0976562 0.9375 -0.140625 C 0.882812 -0.179688 0.828125 -0.226562 0.765625 -0.28125 L 0.765625 0.796875 C 0.765625 0.816406 0.757812 0.828125 0.75 0.828125 C 0.75 0.835938 0.738281 0.847656 0.71875 0.859375 C 0.707031 0.867188 0.6875 0.875 0.65625 0.875 C 0.632812 0.875 0.601562 0.875 0.5625 0.875 C 0.53125 0.875 0.5 0.875 0.46875 0.875 C 0.445312 0.875 0.425781 0.867188 0.40625 0.859375 C 0.394531 0.847656 0.382812 0.835938 0.375 0.828125 C 0.375 0.828125 0.375 0.816406 0.375 0.796875 L 0.375 -2.234375 C 0.375 -2.253906 0.375 -2.265625 0.375 -2.265625 C 0.382812 -2.273438 0.394531 -2.285156 0.40625 -2.296875 C 0.414062 -2.304688 0.429688 -2.3125 0.453125 -2.3125 C 0.484375 -2.3125 0.515625 -2.3125 0.546875 -2.3125 C 0.578125 -2.3125 0.601562 -2.3125 0.625 -2.3125 C 0.644531 -2.3125 0.660156 -2.304688 0.671875 -2.296875 C 0.691406 -2.285156 0.703125 -2.273438 0.703125 -2.265625 C 0.710938 -2.265625 0.71875 -2.253906 0.71875 -2.234375 L 0.71875 -1.9375 C 0.78125 -2.007812 0.84375 -2.070312 0.90625 -2.125 C 0.96875 -2.175781 1.03125 -2.21875 1.09375 -2.25 C 1.15625 -2.28125 1.21875 -2.300781 1.28125 -2.3125 C 1.351562 -2.332031 1.425781 -2.34375 1.5 -2.34375 C 1.65625 -2.34375 1.785156 -2.3125 1.890625 -2.25 C 2.003906 -2.1875 2.097656 -2.101562 2.171875 -2 C 2.242188 -1.894531 2.296875 -1.769531 2.328125 -1.625 C 2.359375 -1.488281 2.375 -1.34375 2.375 -1.1875 Z M 1.953125 -1.140625 C 1.953125 -1.242188 1.941406 -1.347656 1.921875 -1.453125 C 1.910156 -1.554688 1.882812 -1.648438 1.84375 -1.734375 C 1.800781 -1.816406 1.742188 -1.878906 1.671875 -1.921875 C 1.597656 -1.972656 1.515625 -2 1.421875 -2 C 1.367188 -2 1.316406 -1.988281 1.265625 -1.96875 C 1.210938 -1.957031 1.160156 -1.9375 1.109375 -1.90625 C 1.054688 -1.875 1 -1.832031 0.9375 -1.78125 C 0.882812 -1.726562 0.828125 -1.660156 0.765625 -1.578125 L 0.765625 -0.71875 C 0.878906 -0.582031 0.984375 -0.476562 1.078125 -0.40625 C 1.179688 -0.332031 1.285156 -0.296875 1.390625 -0.296875 C 1.492188 -0.296875 1.578125 -0.316406 1.640625 -0.359375 C 1.710938 -0.410156 1.769531 -0.476562 1.8125 -0.5625 C 1.863281 -0.644531 1.898438 -0.734375 1.921875 -0.828125 C 1.941406 -0.929688 1.953125 -1.035156 1.953125 -1.140625 Z M 1.953125 -1.140625 "/></g></g></g><g fill="#ffffff" fill-opacity="1"><g transform="translate(180.460069, 251.727838)"><g><path d="M 2.015625 -0.0625 C 2.015625 -0.0390625 2.003906 -0.0234375 1.984375 -0.015625 C 1.972656 -0.00390625 1.957031 0 1.9375 0 C 1.914062 0.0078125 1.882812 0.015625 1.84375 0.015625 C 1.800781 0.015625 1.765625 0.0078125 1.734375 0 C 1.710938 0 1.695312 -0.00390625 1.6875 -0.015625 C 1.675781 -0.0234375 1.671875 -0.0390625 1.671875 -0.0625 L 1.671875 -0.28125 C 1.578125 -0.175781 1.46875 -0.09375 1.34375 -0.03125 C 1.226562 0.0195312 1.109375 0.046875 0.984375 0.046875 C 0.867188 0.046875 0.765625 0.03125 0.671875 0 C 0.578125 -0.03125 0.492188 -0.0703125 0.421875 -0.125 C 0.359375 -0.1875 0.304688 -0.253906 0.265625 -0.328125 C 0.234375 -0.410156 0.21875 -0.503906 0.21875 -0.609375 C 0.21875 -0.734375 0.242188 -0.84375 0.296875 -0.9375 C 0.347656 -1.03125 0.421875 -1.101562 0.515625 -1.15625 C 0.609375 -1.21875 0.722656 -1.265625 0.859375 -1.296875 C 0.992188 -1.328125 1.144531 -1.34375 1.3125 -1.34375 L 1.609375 -1.34375 L 1.609375 -1.515625 C 1.609375 -1.597656 1.597656 -1.671875 1.578125 -1.734375 C 1.566406 -1.796875 1.539062 -1.847656 1.5 -1.890625 C 1.457031 -1.929688 1.40625 -1.960938 1.34375 -1.984375 C 1.28125 -2.003906 1.203125 -2.015625 1.109375 -2.015625 C 1.015625 -2.015625 0.925781 -2.003906 0.84375 -1.984375 C 0.769531 -1.960938 0.703125 -1.9375 0.640625 -1.90625 C 0.585938 -1.875 0.539062 -1.847656 0.5 -1.828125 C 0.457031 -1.804688 0.425781 -1.796875 0.40625 -1.796875 C 0.394531 -1.796875 0.382812 -1.796875 0.375 -1.796875 C 0.363281 -1.804688 0.351562 -1.816406 0.34375 -1.828125 C 0.34375 -1.847656 0.335938 -1.867188 0.328125 -1.890625 C 0.328125 -1.910156 0.328125 -1.929688 0.328125 -1.953125 C 0.328125 -1.992188 0.328125 -2.023438 0.328125 -2.046875 C 0.335938 -2.066406 0.351562 -2.085938 0.375 -2.109375 C 0.394531 -2.128906 0.429688 -2.15625 0.484375 -2.1875 C 0.546875 -2.21875 0.609375 -2.242188 0.671875 -2.265625 C 0.742188 -2.285156 0.820312 -2.300781 0.90625 -2.3125 C 0.988281 -2.332031 1.070312 -2.34375 1.15625 -2.34375 C 1.3125 -2.34375 1.441406 -2.320312 1.546875 -2.28125 C 1.660156 -2.25 1.75 -2.195312 1.8125 -2.125 C 1.882812 -2.0625 1.9375 -1.976562 1.96875 -1.875 C 2 -1.78125 2.015625 -1.664062 2.015625 -1.53125 Z M 1.609375 -1.046875 L 1.265625 -1.046875 C 1.160156 -1.046875 1.066406 -1.035156 0.984375 -1.015625 C 0.898438 -1.003906 0.832031 -0.976562 0.78125 -0.9375 C 0.726562 -0.90625 0.6875 -0.863281 0.65625 -0.8125 C 0.632812 -0.757812 0.625 -0.703125 0.625 -0.640625 C 0.625 -0.523438 0.660156 -0.429688 0.734375 -0.359375 C 0.804688 -0.296875 0.910156 -0.265625 1.046875 -0.265625 C 1.148438 -0.265625 1.242188 -0.289062 1.328125 -0.34375 C 1.421875 -0.394531 1.515625 -0.476562 1.609375 -0.59375 Z M 1.609375 -1.046875 "/></g></g></g><g fill="#ffffff" fill-opacity="1"><g transform="translate(182.832852, 251.727838)"><g><path d="M 1.640625 -2.09375 C 1.640625 -2.0625 1.640625 -2.03125 1.640625 -2 C 1.640625 -1.976562 1.632812 -1.957031 1.625 -1.9375 C 1.625 -1.925781 1.617188 -1.914062 1.609375 -1.90625 C 1.597656 -1.90625 1.585938 -1.90625 1.578125 -1.90625 C 1.566406 -1.90625 1.550781 -1.90625 1.53125 -1.90625 C 1.507812 -1.914062 1.488281 -1.925781 1.46875 -1.9375 C 1.445312 -1.945312 1.421875 -1.953125 1.390625 -1.953125 C 1.359375 -1.960938 1.328125 -1.96875 1.296875 -1.96875 C 1.253906 -1.96875 1.210938 -1.957031 1.171875 -1.9375 C 1.140625 -1.925781 1.101562 -1.898438 1.0625 -1.859375 C 1.019531 -1.828125 0.972656 -1.78125 0.921875 -1.71875 C 0.878906 -1.65625 0.828125 -1.582031 0.765625 -1.5 L 0.765625 -0.0625 C 0.765625 -0.0507812 0.757812 -0.0390625 0.75 -0.03125 C 0.75 -0.0195312 0.738281 -0.0078125 0.71875 0 C 0.707031 0 0.6875 0 0.65625 0 C 0.632812 0.0078125 0.601562 0.015625 0.5625 0.015625 C 0.53125 0.015625 0.5 0.0078125 0.46875 0 C 0.445312 0 0.425781 0 0.40625 0 C 0.394531 -0.0078125 0.382812 -0.0195312 0.375 -0.03125 C 0.375 -0.0390625 0.375 -0.0507812 0.375 -0.0625 L 0.375 -2.234375 C 0.375 -2.242188 0.375 -2.253906 0.375 -2.265625 C 0.382812 -2.273438 0.394531 -2.285156 0.40625 -2.296875 C 0.414062 -2.304688 0.429688 -2.3125 0.453125 -2.3125 C 0.484375 -2.3125 0.515625 -2.3125 0.546875 -2.3125 C 0.585938 -2.3125 0.617188 -2.3125 0.640625 -2.3125 C 0.660156 -2.3125 0.675781 -2.304688 0.6875 -2.296875 C 0.707031 -2.285156 0.71875 -2.273438 0.71875 -2.265625 C 0.726562 -2.253906 0.734375 -2.242188 0.734375 -2.234375 L 0.734375 -1.921875 C 0.785156 -2.003906 0.835938 -2.070312 0.890625 -2.125 C 0.953125 -2.1875 1.003906 -2.234375 1.046875 -2.265625 C 1.097656 -2.296875 1.144531 -2.316406 1.1875 -2.328125 C 1.226562 -2.335938 1.273438 -2.34375 1.328125 -2.34375 C 1.347656 -2.34375 1.367188 -2.34375 1.390625 -2.34375 C 1.421875 -2.34375 1.453125 -2.335938 1.484375 -2.328125 C 1.515625 -2.316406 1.539062 -2.304688 1.5625 -2.296875 C 1.582031 -2.296875 1.597656 -2.289062 1.609375 -2.28125 C 1.617188 -2.269531 1.625 -2.257812 1.625 -2.25 C 1.625 -2.25 1.625 -2.242188 1.625 -2.234375 C 1.632812 -2.222656 1.640625 -2.207031 1.640625 -2.1875 C 1.640625 -2.164062 1.640625 -2.132812 1.640625 -2.09375 Z M 1.640625 -2.09375 "/></g></g></g><g fill="#ffffff" fill-opacity="1"><g transform="translate(184.559832, 251.727838)"><g><path d="M 2.015625 -0.0625 C 2.015625 -0.0390625 2.003906 -0.0234375 1.984375 -0.015625 C 1.972656 -0.00390625 1.957031 0 1.9375 0 C 1.914062 0.0078125 1.882812 0.015625 1.84375 0.015625 C 1.800781 0.015625 1.765625 0.0078125 1.734375 0 C 1.710938 0 1.695312 -0.00390625 1.6875 -0.015625 C 1.675781 -0.0234375 1.671875 -0.0390625 1.671875 -0.0625 L 1.671875 -0.28125 C 1.578125 -0.175781 1.46875 -0.09375 1.34375 -0.03125 C 1.226562 0.0195312 1.109375 0.046875 0.984375 0.046875 C 0.867188 0.046875 0.765625 0.03125 0.671875 0 C 0.578125 -0.03125 0.492188 -0.0703125 0.421875 -0.125 C 0.359375 -0.1875 0.304688 -0.253906 0.265625 -0.328125 C 0.234375 -0.410156 0.21875 -0.503906 0.21875 -0.609375 C 0.21875 -0.734375 0.242188 -0.84375 0.296875 -0.9375 C 0.347656 -1.03125 0.421875 -1.101562 0.515625 -1.15625 C 0.609375 -1.21875 0.722656 -1.265625 0.859375 -1.296875 C 0.992188 -1.328125 1.144531 -1.34375 1.3125 -1.34375 L 1.609375 -1.34375 L 1.609375 -1.515625 C 1.609375 -1.597656 1.597656 -1.671875 1.578125 -1.734375 C 1.566406 -1.796875 1.539062 -1.847656 1.5 -1.890625 C 1.457031 -1.929688 1.40625 -1.960938 1.34375 -1.984375 C 1.28125 -2.003906 1.203125 -2.015625 1.109375 -2.015625 C 1.015625 -2.015625 0.925781 -2.003906 0.84375 -1.984375 C 0.769531 -1.960938 0.703125 -1.9375 0.640625 -1.90625 C 0.585938 -1.875 0.539062 -1.847656 0.5 -1.828125 C 0.457031 -1.804688 0.425781 -1.796875 0.40625 -1.796875 C 0.394531 -1.796875 0.382812 -1.796875 0.375 -1.796875 C 0.363281 -1.804688 0.351562 -1.816406 0.34375 -1.828125 C 0.34375 -1.847656 0.335938 -1.867188 0.328125 -1.890625 C 0.328125 -1.910156 0.328125 -1.929688 0.328125 -1.953125 C 0.328125 -1.992188 0.328125 -2.023438 0.328125 -2.046875 C 0.335938 -2.066406 0.351562 -2.085938 0.375 -2.109375 C 0.394531 -2.128906 0.429688 -2.15625 0.484375 -2.1875 C 0.546875 -2.21875 0.609375 -2.242188 0.671875 -2.265625 C 0.742188 -2.285156 0.820312 -2.300781 0.90625 -2.3125 C 0.988281 -2.332031 1.070312 -2.34375 1.15625 -2.34375 C 1.3125 -2.34375 1.441406 -2.320312 1.546875 -2.28125 C 1.660156 -2.25 1.75 -2.195312 1.8125 -2.125 C 1.882812 -2.0625 1.9375 -1.976562 1.96875 -1.875 C 2 -1.78125 2.015625 -1.664062 2.015625 -1.53125 Z M 1.609375 -1.046875 L 1.265625 -1.046875 C 1.160156 -1.046875 1.066406 -1.035156 0.984375 -1.015625 C 0.898438 -1.003906 0.832031 -0.976562 0.78125 -0.9375 C 0.726562 -0.90625 0.6875 -0.863281 0.65625 -0.8125 C 0.632812 -0.757812 0.625 -0.703125 0.625 -0.640625 C 0.625 -0.523438 0.660156 -0.429688 0.734375 -0.359375 C 0.804688 -0.296875 0.910156 -0.265625 1.046875 -0.265625 C 1.148438 -0.265625 1.242188 -0.289062 1.328125 -0.34375 C 1.421875 -0.394531 1.515625 -0.476562 1.609375 -0.59375 Z M 1.609375 -1.046875 "/></g></g></g><g fill="#ffffff" fill-opacity="1"><g transform="translate(186.932615, 251.727838)"><g><path d="M 2.1875 -2.140625 C 2.1875 -2.078125 2.175781 -2.035156 2.15625 -2.015625 C 2.144531 -1.992188 2.128906 -1.984375 2.109375 -1.984375 L 1.796875 -1.984375 C 1.847656 -1.921875 1.882812 -1.851562 1.90625 -1.78125 C 1.9375 -1.71875 1.953125 -1.644531 1.953125 -1.5625 C 1.953125 -1.4375 1.929688 -1.328125 1.890625 -1.234375 C 1.847656 -1.140625 1.785156 -1.054688 1.703125 -0.984375 C 1.628906 -0.921875 1.539062 -0.867188 1.4375 -0.828125 C 1.34375 -0.796875 1.234375 -0.78125 1.109375 -0.78125 C 1.015625 -0.78125 0.925781 -0.789062 0.84375 -0.8125 C 0.769531 -0.832031 0.710938 -0.863281 0.671875 -0.90625 C 0.640625 -0.875 0.613281 -0.835938 0.59375 -0.796875 C 0.570312 -0.765625 0.5625 -0.722656 0.5625 -0.671875 C 0.5625 -0.617188 0.585938 -0.570312 0.640625 -0.53125 C 0.691406 -0.5 0.765625 -0.476562 0.859375 -0.46875 L 1.421875 -0.453125 C 1.523438 -0.453125 1.625 -0.4375 1.71875 -0.40625 C 1.8125 -0.382812 1.890625 -0.347656 1.953125 -0.296875 C 2.015625 -0.242188 2.066406 -0.179688 2.109375 -0.109375 C 2.148438 -0.0351562 2.171875 0.046875 2.171875 0.140625 C 2.171875 0.234375 2.144531 0.328125 2.09375 0.421875 C 2.050781 0.515625 1.988281 0.59375 1.90625 0.65625 C 1.820312 0.726562 1.710938 0.78125 1.578125 0.8125 C 1.441406 0.851562 1.285156 0.875 1.109375 0.875 C 0.929688 0.875 0.78125 0.859375 0.65625 0.828125 C 0.53125 0.804688 0.425781 0.769531 0.34375 0.71875 C 0.269531 0.664062 0.210938 0.601562 0.171875 0.53125 C 0.140625 0.457031 0.125 0.378906 0.125 0.296875 C 0.125 0.242188 0.128906 0.191406 0.140625 0.140625 C 0.160156 0.0859375 0.179688 0.0390625 0.203125 0 C 0.234375 -0.0390625 0.265625 -0.0820312 0.296875 -0.125 C 0.335938 -0.164062 0.382812 -0.207031 0.4375 -0.25 C 0.363281 -0.289062 0.304688 -0.34375 0.265625 -0.40625 C 0.222656 -0.46875 0.203125 -0.535156 0.203125 -0.609375 C 0.203125 -0.703125 0.222656 -0.785156 0.265625 -0.859375 C 0.304688 -0.941406 0.359375 -1.015625 0.421875 -1.078125 C 0.367188 -1.128906 0.328125 -1.191406 0.296875 -1.265625 C 0.273438 -1.347656 0.265625 -1.441406 0.265625 -1.546875 C 0.265625 -1.671875 0.285156 -1.78125 0.328125 -1.875 C 0.367188 -1.976562 0.425781 -2.0625 0.5 -2.125 C 0.570312 -2.195312 0.660156 -2.25 0.765625 -2.28125 C 0.867188 -2.320312 0.984375 -2.34375 1.109375 -2.34375 C 1.171875 -2.34375 1.226562 -2.335938 1.28125 -2.328125 C 1.34375 -2.316406 1.398438 -2.304688 1.453125 -2.296875 L 2.109375 -2.296875 C 2.128906 -2.296875 2.144531 -2.28125 2.15625 -2.25 C 2.175781 -2.226562 2.1875 -2.191406 2.1875 -2.140625 Z M 1.5625 -1.5625 C 1.5625 -1.707031 1.519531 -1.820312 1.4375 -1.90625 C 1.363281 -1.988281 1.25 -2.03125 1.09375 -2.03125 C 1.019531 -2.03125 0.953125 -2.015625 0.890625 -1.984375 C 0.835938 -1.960938 0.789062 -1.929688 0.75 -1.890625 C 0.707031 -1.847656 0.675781 -1.796875 0.65625 -1.734375 C 0.644531 -1.671875 0.640625 -1.609375 0.640625 -1.546875 C 0.640625 -1.398438 0.675781 -1.285156 0.75 -1.203125 C 0.832031 -1.128906 0.953125 -1.09375 1.109375 -1.09375 C 1.179688 -1.09375 1.242188 -1.101562 1.296875 -1.125 C 1.359375 -1.144531 1.410156 -1.175781 1.453125 -1.21875 C 1.492188 -1.269531 1.519531 -1.320312 1.53125 -1.375 C 1.550781 -1.4375 1.5625 -1.5 1.5625 -1.5625 Z M 1.765625 0.15625 C 1.765625 0.0625 1.722656 -0.0078125 1.640625 -0.0625 C 1.566406 -0.113281 1.46875 -0.140625 1.34375 -0.140625 L 0.78125 -0.15625 C 0.726562 -0.113281 0.679688 -0.0703125 0.640625 -0.03125 C 0.609375 0 0.582031 0.03125 0.5625 0.0625 C 0.550781 0.09375 0.539062 0.125 0.53125 0.15625 C 0.519531 0.1875 0.515625 0.222656 0.515625 0.265625 C 0.515625 0.367188 0.566406 0.445312 0.671875 0.5 C 0.785156 0.550781 0.9375 0.578125 1.125 0.578125 C 1.25 0.578125 1.347656 0.566406 1.421875 0.546875 C 1.503906 0.523438 1.570312 0.492188 1.625 0.453125 C 1.675781 0.410156 1.710938 0.363281 1.734375 0.3125 C 1.753906 0.257812 1.765625 0.207031 1.765625 0.15625 Z M 1.765625 0.15625 "/></g></g></g><g fill="#ffffff" fill-opacity="1"><g transform="translate(189.26428, 251.727838)"><g><path d="M 1.640625 -2.09375 C 1.640625 -2.0625 1.640625 -2.03125 1.640625 -2 C 1.640625 -1.976562 1.632812 -1.957031 1.625 -1.9375 C 1.625 -1.925781 1.617188 -1.914062 1.609375 -1.90625 C 1.597656 -1.90625 1.585938 -1.90625 1.578125 -1.90625 C 1.566406 -1.90625 1.550781 -1.90625 1.53125 -1.90625 C 1.507812 -1.914062 1.488281 -1.925781 1.46875 -1.9375 C 1.445312 -1.945312 1.421875 -1.953125 1.390625 -1.953125 C 1.359375 -1.960938 1.328125 -1.96875 1.296875 -1.96875 C 1.253906 -1.96875 1.210938 -1.957031 1.171875 -1.9375 C 1.140625 -1.925781 1.101562 -1.898438 1.0625 -1.859375 C 1.019531 -1.828125 0.972656 -1.78125 0.921875 -1.71875 C 0.878906 -1.65625 0.828125 -1.582031 0.765625 -1.5 L 0.765625 -0.0625 C 0.765625 -0.0507812 0.757812 -0.0390625 0.75 -0.03125 C 0.75 -0.0195312 0.738281 -0.0078125 0.71875 0 C 0.707031 0 0.6875 0 0.65625 0 C 0.632812 0.0078125 0.601562 0.015625 0.5625 0.015625 C 0.53125 0.015625 0.5 0.0078125 0.46875 0 C 0.445312 0 0.425781 0 0.40625 0 C 0.394531 -0.0078125 0.382812 -0.0195312 0.375 -0.03125 C 0.375 -0.0390625 0.375 -0.0507812 0.375 -0.0625 L 0.375 -2.234375 C 0.375 -2.242188 0.375 -2.253906 0.375 -2.265625 C 0.382812 -2.273438 0.394531 -2.285156 0.40625 -2.296875 C 0.414062 -2.304688 0.429688 -2.3125 0.453125 -2.3125 C 0.484375 -2.3125 0.515625 -2.3125 0.546875 -2.3125 C 0.585938 -2.3125 0.617188 -2.3125 0.640625 -2.3125 C 0.660156 -2.3125 0.675781 -2.304688 0.6875 -2.296875 C 0.707031 -2.285156 0.71875 -2.273438 0.71875 -2.265625 C 0.726562 -2.253906 0.734375 -2.242188 0.734375 -2.234375 L 0.734375 -1.921875 C 0.785156 -2.003906 0.835938 -2.070312 0.890625 -2.125 C 0.953125 -2.1875 1.003906 -2.234375 1.046875 -2.265625 C 1.097656 -2.296875 1.144531 -2.316406 1.1875 -2.328125 C 1.226562 -2.335938 1.273438 -2.34375 1.328125 -2.34375 C 1.347656 -2.34375 1.367188 -2.34375 1.390625 -2.34375 C 1.421875 -2.34375 1.453125 -2.335938 1.484375 -2.328125 C 1.515625 -2.316406 1.539062 -2.304688 1.5625 -2.296875 C 1.582031 -2.296875 1.597656 -2.289062 1.609375 -2.28125 C 1.617188 -2.269531 1.625 -2.257812 1.625 -2.25 C 1.625 -2.25 1.625 -2.242188 1.625 -2.234375 C 1.632812 -2.222656 1.640625 -2.207031 1.640625 -2.1875 C 1.640625 -2.164062 1.640625 -2.132812 1.640625 -2.09375 Z M 1.640625 -2.09375 "/></g></g></g><g fill="#ffffff" fill-opacity="1"><g transform="translate(190.99126, 251.727838)"><g><path d="M 2.015625 -0.0625 C 2.015625 -0.0390625 2.003906 -0.0234375 1.984375 -0.015625 C 1.972656 -0.00390625 1.957031 0 1.9375 0 C 1.914062 0.0078125 1.882812 0.015625 1.84375 0.015625 C 1.800781 0.015625 1.765625 0.0078125 1.734375 0 C 1.710938 0 1.695312 -0.00390625 1.6875 -0.015625 C 1.675781 -0.0234375 1.671875 -0.0390625 1.671875 -0.0625 L 1.671875 -0.28125 C 1.578125 -0.175781 1.46875 -0.09375 1.34375 -0.03125 C 1.226562 0.0195312 1.109375 0.046875 0.984375 0.046875 C 0.867188 0.046875 0.765625 0.03125 0.671875 0 C 0.578125 -0.03125 0.492188 -0.0703125 0.421875 -0.125 C 0.359375 -0.1875 0.304688 -0.253906 0.265625 -0.328125 C 0.234375 -0.410156 0.21875 -0.503906 0.21875 -0.609375 C 0.21875 -0.734375 0.242188 -0.84375 0.296875 -0.9375 C 0.347656 -1.03125 0.421875 -1.101562 0.515625 -1.15625 C 0.609375 -1.21875 0.722656 -1.265625 0.859375 -1.296875 C 0.992188 -1.328125 1.144531 -1.34375 1.3125 -1.34375 L 1.609375 -1.34375 L 1.609375 -1.515625 C 1.609375 -1.597656 1.597656 -1.671875 1.578125 -1.734375 C 1.566406 -1.796875 1.539062 -1.847656 1.5 -1.890625 C 1.457031 -1.929688 1.40625 -1.960938 1.34375 -1.984375 C 1.28125 -2.003906 1.203125 -2.015625 1.109375 -2.015625 C 1.015625 -2.015625 0.925781 -2.003906 0.84375 -1.984375 C 0.769531 -1.960938 0.703125 -1.9375 0.640625 -1.90625 C 0.585938 -1.875 0.539062 -1.847656 0.5 -1.828125 C 0.457031 -1.804688 0.425781 -1.796875 0.40625 -1.796875 C 0.394531 -1.796875 0.382812 -1.796875 0.375 -1.796875 C 0.363281 -1.804688 0.351562 -1.816406 0.34375 -1.828125 C 0.34375 -1.847656 0.335938 -1.867188 0.328125 -1.890625 C 0.328125 -1.910156 0.328125 -1.929688 0.328125 -1.953125 C 0.328125 -1.992188 0.328125 -2.023438 0.328125 -2.046875 C 0.335938 -2.066406 0.351562 -2.085938 0.375 -2.109375 C 0.394531 -2.128906 0.429688 -2.15625 0.484375 -2.1875 C 0.546875 -2.21875 0.609375 -2.242188 0.671875 -2.265625 C 0.742188 -2.285156 0.820312 -2.300781 0.90625 -2.3125 C 0.988281 -2.332031 1.070312 -2.34375 1.15625 -2.34375 C 1.3125 -2.34375 1.441406 -2.320312 1.546875 -2.28125 C 1.660156 -2.25 1.75 -2.195312 1.8125 -2.125 C 1.882812 -2.0625 1.9375 -1.976562 1.96875 -1.875 C 2 -1.78125 2.015625 -1.664062 2.015625 -1.53125 Z M 1.609375 -1.046875 L 1.265625 -1.046875 C 1.160156 -1.046875 1.066406 -1.035156 0.984375 -1.015625 C 0.898438 -1.003906 0.832031 -0.976562 0.78125 -0.9375 C 0.726562 -0.90625 0.6875 -0.863281 0.65625 -0.8125 C 0.632812 -0.757812 0.625 -0.703125 0.625 -0.640625 C 0.625 -0.523438 0.660156 -0.429688 0.734375 -0.359375 C 0.804688 -0.296875 0.910156 -0.265625 1.046875 -0.265625 C 1.148438 -0.265625 1.242188 -0.289062 1.328125 -0.34375 C 1.421875 -0.394531 1.515625 -0.476562 1.609375 -0.59375 Z M 1.609375 -1.046875 "/></g></g></g><g fill="#ffffff" fill-opacity="1"><g transform="translate(193.364043, 251.727838)"><g><path d="M 2.375 -1.1875 C 2.375 -0.988281 2.351562 -0.8125 2.3125 -0.65625 C 2.269531 -0.507812 2.207031 -0.382812 2.125 -0.28125 C 2.050781 -0.175781 1.953125 -0.09375 1.828125 -0.03125 C 1.710938 0.0195312 1.578125 0.046875 1.421875 0.046875 C 1.359375 0.046875 1.300781 0.0351562 1.25 0.015625 C 1.195312 0.00390625 1.144531 -0.0078125 1.09375 -0.03125 C 1.039062 -0.0625 0.988281 -0.0976562 0.9375 -0.140625 C 0.882812 -0.179688 0.828125 -0.226562 0.765625 -0.28125 L 0.765625 0.796875 C 0.765625 0.816406 0.757812 0.828125 0.75 0.828125 C 0.75 0.835938 0.738281 0.847656 0.71875 0.859375 C 0.707031 0.867188 0.6875 0.875 0.65625 0.875 C 0.632812 0.875 0.601562 0.875 0.5625 0.875 C 0.53125 0.875 0.5 0.875 0.46875 0.875 C 0.445312 0.875 0.425781 0.867188 0.40625 0.859375 C 0.394531 0.847656 0.382812 0.835938 0.375 0.828125 C 0.375 0.828125 0.375 0.816406 0.375 0.796875 L 0.375 -2.234375 C 0.375 -2.253906 0.375 -2.265625 0.375 -2.265625 C 0.382812 -2.273438 0.394531 -2.285156 0.40625 -2.296875 C 0.414062 -2.304688 0.429688 -2.3125 0.453125 -2.3125 C 0.484375 -2.3125 0.515625 -2.3125 0.546875 -2.3125 C 0.578125 -2.3125 0.601562 -2.3125 0.625 -2.3125 C 0.644531 -2.3125 0.660156 -2.304688 0.671875 -2.296875 C 0.691406 -2.285156 0.703125 -2.273438 0.703125 -2.265625 C 0.710938 -2.265625 0.71875 -2.253906 0.71875 -2.234375 L 0.71875 -1.9375 C 0.78125 -2.007812 0.84375 -2.070312 0.90625 -2.125 C 0.96875 -2.175781 1.03125 -2.21875 1.09375 -2.25 C 1.15625 -2.28125 1.21875 -2.300781 1.28125 -2.3125 C 1.351562 -2.332031 1.425781 -2.34375 1.5 -2.34375 C 1.65625 -2.34375 1.785156 -2.3125 1.890625 -2.25 C 2.003906 -2.1875 2.097656 -2.101562 2.171875 -2 C 2.242188 -1.894531 2.296875 -1.769531 2.328125 -1.625 C 2.359375 -1.488281 2.375 -1.34375 2.375 -1.1875 Z M 1.953125 -1.140625 C 1.953125 -1.242188 1.941406 -1.347656 1.921875 -1.453125 C 1.910156 -1.554688 1.882812 -1.648438 1.84375 -1.734375 C 1.800781 -1.816406 1.742188 -1.878906 1.671875 -1.921875 C 1.597656 -1.972656 1.515625 -2 1.421875 -2 C 1.367188 -2 1.316406 -1.988281 1.265625 -1.96875 C 1.210938 -1.957031 1.160156 -1.9375 1.109375 -1.90625 C 1.054688 -1.875 1 -1.832031 0.9375 -1.78125 C 0.882812 -1.726562 0.828125 -1.660156 0.765625 -1.578125 L 0.765625 -0.71875 C 0.878906 -0.582031 0.984375 -0.476562 1.078125 -0.40625 C 1.179688 -0.332031 1.285156 -0.296875 1.390625 -0.296875 C 1.492188 -0.296875 1.578125 -0.316406 1.640625 -0.359375 C 1.710938 -0.410156 1.769531 -0.476562 1.8125 -0.5625 C 1.863281 -0.644531 1.898438 -0.734375 1.921875 -0.828125 C 1.941406 -0.929688 1.953125 -1.035156 1.953125 -1.140625 Z M 1.953125 -1.140625 "/></g></g></g><g fill="#ffffff" fill-opacity="1"><g transform="translate(195.966607, 251.727838)"><g><path d="M 2.25 -0.0625 C 2.25 -0.0507812 2.242188 -0.0390625 2.234375 -0.03125 C 2.222656 -0.0195312 2.210938 -0.0078125 2.203125 0 C 2.191406 0 2.171875 0 2.140625 0 C 2.117188 0.0078125 2.085938 0.015625 2.046875 0.015625 C 2.003906 0.015625 1.96875 0.0078125 1.9375 0 C 1.914062 0 1.894531 0 1.875 0 C 1.863281 -0.0078125 1.851562 -0.0195312 1.84375 -0.03125 C 1.84375 -0.0390625 1.84375 -0.0507812 1.84375 -0.0625 L 1.84375 -1.328125 C 1.84375 -1.453125 1.832031 -1.550781 1.8125 -1.625 C 1.789062 -1.707031 1.757812 -1.773438 1.71875 -1.828125 C 1.6875 -1.878906 1.640625 -1.921875 1.578125 -1.953125 C 1.523438 -1.984375 1.460938 -2 1.390625 -2 C 1.285156 -2 1.179688 -1.960938 1.078125 -1.890625 C 0.984375 -1.816406 0.878906 -1.710938 0.765625 -1.578125 L 0.765625 -0.0625 C 0.765625 -0.0507812 0.757812 -0.0390625 0.75 -0.03125 C 0.75 -0.0195312 0.738281 -0.0078125 0.71875 0 C 0.707031 0 0.6875 0 0.65625 0 C 0.632812 0.0078125 0.601562 0.015625 0.5625 0.015625 C 0.53125 0.015625 0.5 0.0078125 0.46875 0 C 0.445312 0 0.425781 0 0.40625 0 C 0.394531 -0.0078125 0.382812 -0.0195312 0.375 -0.03125 C 0.375 -0.0390625 0.375 -0.0507812 0.375 -0.0625 L 0.375 -3.296875 C 0.375 -3.304688 0.375 -3.316406 0.375 -3.328125 C 0.382812 -3.335938 0.394531 -3.34375 0.40625 -3.34375 C 0.425781 -3.351562 0.445312 -3.359375 0.46875 -3.359375 C 0.5 -3.367188 0.53125 -3.375 0.5625 -3.375 C 0.601562 -3.375 0.632812 -3.367188 0.65625 -3.359375 C 0.6875 -3.359375 0.707031 -3.351562 0.71875 -3.34375 C 0.738281 -3.34375 0.75 -3.335938 0.75 -3.328125 C 0.757812 -3.316406 0.765625 -3.304688 0.765625 -3.296875 L 0.765625 -1.984375 C 0.878906 -2.109375 0.992188 -2.195312 1.109375 -2.25 C 1.234375 -2.3125 1.351562 -2.34375 1.46875 -2.34375 C 1.613281 -2.34375 1.734375 -2.316406 1.828125 -2.265625 C 1.929688 -2.222656 2.015625 -2.160156 2.078125 -2.078125 C 2.140625 -1.992188 2.179688 -1.894531 2.203125 -1.78125 C 2.234375 -1.675781 2.25 -1.546875 2.25 -1.390625 Z M 2.25 -0.0625 "/></g></g></g><g fill="#ffffff" fill-opacity="1"><g transform="translate(198.56917, 251.727838)"><g/></g></g><g fill="#ffffff" fill-opacity="1"><g transform="translate(199.689046, 251.727838)"><g><path d="M 1.5 -0.21875 C 1.5 -0.175781 1.492188 -0.140625 1.484375 -0.109375 C 1.484375 -0.078125 1.472656 -0.0546875 1.453125 -0.046875 C 1.441406 -0.0351562 1.421875 -0.0234375 1.390625 -0.015625 C 1.367188 -0.00390625 1.34375 0.00390625 1.3125 0.015625 C 1.28125 0.0234375 1.242188 0.03125 1.203125 0.03125 C 1.171875 0.0390625 1.132812 0.046875 1.09375 0.046875 C 0.988281 0.046875 0.894531 0.03125 0.8125 0 C 0.726562 -0.03125 0.660156 -0.078125 0.609375 -0.140625 C 0.554688 -0.203125 0.519531 -0.28125 0.5 -0.375 C 0.476562 -0.46875 0.46875 -0.578125 0.46875 -0.703125 L 0.46875 -1.96875 L 0.15625 -1.96875 C 0.132812 -1.96875 0.113281 -1.976562 0.09375 -2 C 0.0820312 -2.03125 0.078125 -2.078125 0.078125 -2.140625 C 0.078125 -2.160156 0.078125 -2.179688 0.078125 -2.203125 C 0.0859375 -2.222656 0.09375 -2.238281 0.09375 -2.25 C 0.101562 -2.269531 0.113281 -2.28125 0.125 -2.28125 C 0.132812 -2.289062 0.144531 -2.296875 0.15625 -2.296875 L 0.46875 -2.296875 L 0.46875 -2.8125 C 0.46875 -2.820312 0.46875 -2.832031 0.46875 -2.84375 C 0.476562 -2.851562 0.488281 -2.863281 0.5 -2.875 C 0.519531 -2.882812 0.539062 -2.890625 0.5625 -2.890625 C 0.59375 -2.890625 0.625 -2.890625 0.65625 -2.890625 C 0.695312 -2.890625 0.726562 -2.890625 0.75 -2.890625 C 0.78125 -2.890625 0.800781 -2.882812 0.8125 -2.875 C 0.832031 -2.863281 0.84375 -2.851562 0.84375 -2.84375 C 0.851562 -2.832031 0.859375 -2.820312 0.859375 -2.8125 L 0.859375 -2.296875 L 1.421875 -2.296875 C 1.429688 -2.296875 1.441406 -2.289062 1.453125 -2.28125 C 1.460938 -2.28125 1.472656 -2.269531 1.484375 -2.25 C 1.492188 -2.238281 1.5 -2.222656 1.5 -2.203125 C 1.5 -2.179688 1.5 -2.160156 1.5 -2.140625 C 1.5 -2.078125 1.488281 -2.03125 1.46875 -2 C 1.457031 -1.976562 1.441406 -1.96875 1.421875 -1.96875 L 0.859375 -1.96875 L 0.859375 -0.75 C 0.859375 -0.601562 0.878906 -0.488281 0.921875 -0.40625 C 0.972656 -0.332031 1.054688 -0.296875 1.171875 -0.296875 C 1.203125 -0.296875 1.234375 -0.300781 1.265625 -0.3125 C 1.296875 -0.320312 1.320312 -0.328125 1.34375 -0.328125 C 1.363281 -0.335938 1.378906 -0.347656 1.390625 -0.359375 C 1.410156 -0.367188 1.429688 -0.375 1.453125 -0.375 C 1.453125 -0.375 1.457031 -0.367188 1.46875 -0.359375 C 1.476562 -0.359375 1.484375 -0.351562 1.484375 -0.34375 C 1.492188 -0.332031 1.5 -0.316406 1.5 -0.296875 C 1.5 -0.273438 1.5 -0.25 1.5 -0.21875 Z M 1.5 -0.21875 "/></g></g></g><g fill="#ffffff" fill-opacity="1"><g transform="translate(201.348302, 251.727838)"><g><path d="M 2.234375 -1.25 C 2.234375 -1.1875 2.21875 -1.140625 2.1875 -1.109375 C 2.15625 -1.078125 2.117188 -1.0625 2.078125 -1.0625 L 0.640625 -1.0625 C 0.640625 -0.945312 0.648438 -0.835938 0.671875 -0.734375 C 0.703125 -0.640625 0.742188 -0.554688 0.796875 -0.484375 C 0.859375 -0.421875 0.929688 -0.367188 1.015625 -0.328125 C 1.109375 -0.296875 1.222656 -0.28125 1.359375 -0.28125 C 1.460938 -0.28125 1.550781 -0.285156 1.625 -0.296875 C 1.707031 -0.316406 1.773438 -0.335938 1.828125 -0.359375 C 1.890625 -0.378906 1.941406 -0.394531 1.984375 -0.40625 C 2.023438 -0.425781 2.050781 -0.4375 2.0625 -0.4375 C 2.082031 -0.4375 2.09375 -0.429688 2.09375 -0.421875 C 2.101562 -0.421875 2.109375 -0.414062 2.109375 -0.40625 C 2.117188 -0.394531 2.125 -0.378906 2.125 -0.359375 C 2.132812 -0.335938 2.140625 -0.3125 2.140625 -0.28125 C 2.140625 -0.257812 2.132812 -0.238281 2.125 -0.21875 C 2.125 -0.207031 2.125 -0.195312 2.125 -0.1875 C 2.125 -0.175781 2.117188 -0.164062 2.109375 -0.15625 C 2.109375 -0.144531 2.101562 -0.132812 2.09375 -0.125 C 2.082031 -0.125 2.054688 -0.113281 2.015625 -0.09375 C 1.972656 -0.0703125 1.914062 -0.0507812 1.84375 -0.03125 C 1.769531 -0.0078125 1.6875 0.00390625 1.59375 0.015625 C 1.507812 0.0351562 1.414062 0.046875 1.3125 0.046875 C 1.132812 0.046875 0.976562 0.0195312 0.84375 -0.03125 C 0.707031 -0.0820312 0.59375 -0.15625 0.5 -0.25 C 0.40625 -0.351562 0.332031 -0.476562 0.28125 -0.625 C 0.238281 -0.769531 0.21875 -0.941406 0.21875 -1.140625 C 0.21875 -1.328125 0.242188 -1.492188 0.296875 -1.640625 C 0.347656 -1.785156 0.414062 -1.910156 0.5 -2.015625 C 0.59375 -2.117188 0.703125 -2.195312 0.828125 -2.25 C 0.960938 -2.3125 1.109375 -2.34375 1.265625 -2.34375 C 1.441406 -2.34375 1.585938 -2.316406 1.703125 -2.265625 C 1.828125 -2.210938 1.925781 -2.140625 2 -2.046875 C 2.082031 -1.953125 2.140625 -1.84375 2.171875 -1.71875 C 2.210938 -1.59375 2.234375 -1.457031 2.234375 -1.3125 Z M 1.828125 -1.359375 C 1.828125 -1.566406 1.78125 -1.726562 1.6875 -1.84375 C 1.59375 -1.96875 1.445312 -2.03125 1.25 -2.03125 C 1.15625 -2.03125 1.066406 -2.007812 0.984375 -1.96875 C 0.910156 -1.9375 0.847656 -1.890625 0.796875 -1.828125 C 0.753906 -1.765625 0.71875 -1.691406 0.6875 -1.609375 C 0.664062 -1.535156 0.648438 -1.453125 0.640625 -1.359375 Z M 1.828125 -1.359375 "/></g></g></g><g fill="#ffffff" fill-opacity="1"><g transform="translate(203.812997, 251.727838)"><g><path d="M 2.015625 -0.109375 C 2.023438 -0.0859375 2.03125 -0.0664062 2.03125 -0.046875 C 2.03125 -0.0351562 2.023438 -0.0234375 2.015625 -0.015625 C 2.003906 -0.00390625 1.984375 0 1.953125 0 C 1.921875 0.0078125 1.878906 0.015625 1.828125 0.015625 C 1.773438 0.015625 1.734375 0.0078125 1.703125 0 C 1.679688 0 1.660156 0 1.640625 0 C 1.617188 -0.0078125 1.601562 -0.015625 1.59375 -0.015625 C 1.59375 -0.0234375 1.585938 -0.0351562 1.578125 -0.046875 L 1.0625 -0.921875 L 0.53125 -0.046875 C 0.53125 -0.0351562 0.523438 -0.0234375 0.515625 -0.015625 C 0.503906 -0.015625 0.488281 -0.0078125 0.46875 0 C 0.457031 0 0.4375 0 0.40625 0 C 0.382812 0.0078125 0.347656 0.015625 0.296875 0.015625 C 0.253906 0.015625 0.21875 0.0078125 0.1875 0 C 0.15625 0 0.128906 -0.00390625 0.109375 -0.015625 C 0.0976562 -0.0234375 0.09375 -0.0351562 0.09375 -0.046875 C 0.101562 -0.0664062 0.113281 -0.0859375 0.125 -0.109375 L 0.796875 -1.171875 L 0.15625 -2.1875 C 0.144531 -2.207031 0.140625 -2.222656 0.140625 -2.234375 C 0.140625 -2.253906 0.144531 -2.269531 0.15625 -2.28125 C 0.175781 -2.289062 0.203125 -2.296875 0.234375 -2.296875 C 0.265625 -2.304688 0.304688 -2.3125 0.359375 -2.3125 C 0.398438 -2.3125 0.4375 -2.3125 0.46875 -2.3125 C 0.5 -2.3125 0.519531 -2.304688 0.53125 -2.296875 C 0.550781 -2.296875 0.5625 -2.289062 0.5625 -2.28125 C 0.570312 -2.269531 0.582031 -2.257812 0.59375 -2.25 L 1.09375 -1.4375 L 1.59375 -2.25 C 1.59375 -2.257812 1.597656 -2.265625 1.609375 -2.265625 C 1.617188 -2.273438 1.628906 -2.285156 1.640625 -2.296875 C 1.660156 -2.304688 1.679688 -2.3125 1.703125 -2.3125 C 1.722656 -2.3125 1.757812 -2.3125 1.8125 -2.3125 C 1.851562 -2.3125 1.890625 -2.304688 1.921875 -2.296875 C 1.953125 -2.296875 1.972656 -2.289062 1.984375 -2.28125 C 2.003906 -2.28125 2.007812 -2.269531 2 -2.25 C 2 -2.238281 1.992188 -2.21875 1.984375 -2.1875 L 1.34375 -1.1875 Z M 2.015625 -0.109375 "/></g></g></g><g fill="#ffffff" fill-opacity="1"><g transform="translate(205.958416, 251.727838)"><g><path d="M 1.5 -0.21875 C 1.5 -0.175781 1.492188 -0.140625 1.484375 -0.109375 C 1.484375 -0.078125 1.472656 -0.0546875 1.453125 -0.046875 C 1.441406 -0.0351562 1.421875 -0.0234375 1.390625 -0.015625 C 1.367188 -0.00390625 1.34375 0.00390625 1.3125 0.015625 C 1.28125 0.0234375 1.242188 0.03125 1.203125 0.03125 C 1.171875 0.0390625 1.132812 0.046875 1.09375 0.046875 C 0.988281 0.046875 0.894531 0.03125 0.8125 0 C 0.726562 -0.03125 0.660156 -0.078125 0.609375 -0.140625 C 0.554688 -0.203125 0.519531 -0.28125 0.5 -0.375 C 0.476562 -0.46875 0.46875 -0.578125 0.46875 -0.703125 L 0.46875 -1.96875 L 0.15625 -1.96875 C 0.132812 -1.96875 0.113281 -1.976562 0.09375 -2 C 0.0820312 -2.03125 0.078125 -2.078125 0.078125 -2.140625 C 0.078125 -2.160156 0.078125 -2.179688 0.078125 -2.203125 C 0.0859375 -2.222656 0.09375 -2.238281 0.09375 -2.25 C 0.101562 -2.269531 0.113281 -2.28125 0.125 -2.28125 C 0.132812 -2.289062 0.144531 -2.296875 0.15625 -2.296875 L 0.46875 -2.296875 L 0.46875 -2.8125 C 0.46875 -2.820312 0.46875 -2.832031 0.46875 -2.84375 C 0.476562 -2.851562 0.488281 -2.863281 0.5 -2.875 C 0.519531 -2.882812 0.539062 -2.890625 0.5625 -2.890625 C 0.59375 -2.890625 0.625 -2.890625 0.65625 -2.890625 C 0.695312 -2.890625 0.726562 -2.890625 0.75 -2.890625 C 0.78125 -2.890625 0.800781 -2.882812 0.8125 -2.875 C 0.832031 -2.863281 0.84375 -2.851562 0.84375 -2.84375 C 0.851562 -2.832031 0.859375 -2.820312 0.859375 -2.8125 L 0.859375 -2.296875 L 1.421875 -2.296875 C 1.429688 -2.296875 1.441406 -2.289062 1.453125 -2.28125 C 1.460938 -2.28125 1.472656 -2.269531 1.484375 -2.25 C 1.492188 -2.238281 1.5 -2.222656 1.5 -2.203125 C 1.5 -2.179688 1.5 -2.160156 1.5 -2.140625 C 1.5 -2.078125 1.488281 -2.03125 1.46875 -2 C 1.457031 -1.976562 1.441406 -1.96875 1.421875 -1.96875 L 0.859375 -1.96875 L 0.859375 -0.75 C 0.859375 -0.601562 0.878906 -0.488281 0.921875 -0.40625 C 0.972656 -0.332031 1.054688 -0.296875 1.171875 -0.296875 C 1.203125 -0.296875 1.234375 -0.300781 1.265625 -0.3125 C 1.296875 -0.320312 1.320312 -0.328125 1.34375 -0.328125 C 1.363281 -0.335938 1.378906 -0.347656 1.390625 -0.359375 C 1.410156 -0.367188 1.429688 -0.375 1.453125 -0.375 C 1.453125 -0.375 1.457031 -0.367188 1.46875 -0.359375 C 1.476562 -0.359375 1.484375 -0.351562 1.484375 -0.34375 C 1.492188 -0.332031 1.5 -0.316406 1.5 -0.296875 C 1.5 -0.273438 1.5 -0.25 1.5 -0.21875 Z M 1.5 -0.21875 "/></g></g></g></svg>