<svg xmlns="http://www.w3.org/2000/svg" xmlns:xlink="http://www.w3.org/1999/xlink" width="500" zoomAndPan="magnify" viewBox="0 0 375 374.999991" height="500" preserveAspectRatio="xMidYMid meet" version="1.0"><defs><g/><clipPath id="6013e4bb5e"><path d="M 1 56 L 213 56 L 213 373.5 L 1 373.5 Z M 1 56 " clip-rule="nonzero"/></clipPath></defs><path fill="#000000" d="M 369.648438 81.671875 L 351.425781 77.128906 C 350.308594 73.890625 349 70.652344 347.445312 67.542969 L 357.085938 51.417969 C 358.578125 48.992188 358.140625 45.816406 356.152344 43.824219 L 330.59375 18.238281 C 328.601562 16.246094 325.433594 15.8125 323.007812 17.304688 L 306.898438 27.015625 C 303.789062 25.460938 300.558594 24.152344 297.324219 23.03125 L 292.785156 4.792969 C 292.097656 2.054688 289.613281 0.0625 286.75 0.0625 L 250.558594 0.0625 C 247.699219 0.0625 245.210938 1.992188 244.527344 4.792969 L 239.984375 23.03125 C 236.753906 24.152344 233.519531 25.460938 230.410156 27.015625 L 214.304688 17.304688 C 211.878906 15.8125 208.707031 16.246094 206.714844 18.238281 L 181.15625 43.824219 C 179.167969 45.816406 178.730469 48.992188 180.222656 51.417969 L 189.863281 67.542969 C 189.367188 68.597656 188.867188 69.65625 188.433594 70.777344 C 187.125 73.953125 188.679688 77.625 191.851562 78.871094 C 195.023438 80.179688 198.695312 78.621094 199.9375 75.445312 C 200.683594 73.640625 201.554688 71.898438 202.488281 70.28125 C 203.542969 68.351562 203.480469 66.046875 202.363281 64.117188 L 193.40625 49.175781 L 212.125 30.441406 L 227.050781 39.402344 C 228.917969 40.523438 231.28125 40.585938 233.207031 39.527344 C 237.625 37.101562 242.289062 35.171875 247.011719 33.800781 C 249.128906 33.179688 250.746094 31.5 251.304688 29.320312 L 255.53125 12.449219 L 282.023438 12.449219 L 286.253906 29.320312 C 286.8125 31.4375 288.429688 33.117188 290.542969 33.800781 C 295.269531 35.234375 299.933594 37.164062 304.351562 39.527344 C 306.277344 40.585938 308.640625 40.523438 310.507812 39.402344 L 325.433594 30.441406 L 344.148438 49.175781 L 335.195312 64.117188 C 334.074219 65.984375 334.015625 68.351562 335.070312 70.28125 C 337.496094 74.699219 339.425781 79.367188 340.792969 84.101562 C 341.414062 86.214844 343.09375 87.835938 345.269531 88.394531 L 362.121094 92.628906 L 362.121094 119.148438 L 345.269531 123.378906 C 343.15625 123.941406 341.476562 125.558594 340.792969 127.675781 C 339.363281 132.40625 337.433594 137.074219 335.070312 141.496094 C 334.015625 143.425781 334.074219 145.789062 335.195312 147.65625 L 344.148438 162.597656 L 325.433594 181.335938 L 310.507812 172.371094 C 308.640625 171.25 306.277344 171.1875 304.351562 172.246094 C 299.933594 174.671875 295.269531 176.601562 290.542969 177.972656 C 288.429688 178.59375 286.8125 180.277344 286.253906 182.453125 L 282.023438 199.324219 L 255.53125 199.324219 L 251.304688 182.453125 C 250.746094 180.339844 249.191406 178.65625 247.074219 178.035156 C 242.164062 176.539062 237.5625 174.671875 233.394531 172.371094 C 230.410156 170.75 226.617188 171.808594 224.9375 174.859375 C 223.257812 177.847656 224.378906 181.644531 227.425781 183.328125 C 231.34375 185.503906 235.570312 187.371094 240.109375 188.867188 L 244.648438 207.105469 C 245.335938 209.84375 247.820312 211.835938 250.683594 211.835938 L 286.875 211.835938 C 289.734375 211.835938 292.222656 209.90625 292.90625 207.105469 L 297.449219 188.867188 C 300.679688 187.746094 303.914062 186.4375 307.023438 184.882812 L 323.132812 194.59375 C 325.554688 196.085938 328.726562 195.652344 330.71875 193.660156 L 356.277344 168.074219 C 358.265625 166.082031 358.703125 162.910156 357.210938 160.480469 L 347.570312 144.359375 C 349.0625 141.246094 350.429688 138.007812 351.550781 134.769531 L 369.773438 130.226562 C 372.507812 129.542969 374.496094 127.050781 374.496094 124.1875 L 374.496094 87.960938 C 374.496094 85.097656 372.570312 82.605469 369.773438 81.921875 Z M 369.648438 81.671875 " fill-opacity="1" fill-rule="nonzero"/><path fill="#000000" d="M 268.65625 149.398438 C 292.660156 149.398438 312.1875 129.851562 312.1875 105.824219 C 312.1875 81.796875 292.660156 62.25 268.65625 62.25 C 244.648438 62.25 225.125 81.796875 225.125 105.824219 C 225.125 129.851562 244.648438 149.398438 268.65625 149.398438 Z M 268.65625 74.699219 C 285.820312 74.699219 299.75 88.644531 299.75 105.824219 C 299.75 123.007812 285.820312 136.949219 268.65625 136.949219 C 251.492188 136.949219 237.5625 123.007812 237.5625 105.824219 C 237.5625 88.644531 251.492188 74.699219 268.65625 74.699219 Z M 268.65625 74.699219 " fill-opacity="1" fill-rule="nonzero"/><g clip-path="url(#6013e4bb5e)"><path fill="#000000" d="M 101.867188 56.148438 C 48.324219 58.640625 4.234375 102.589844 1.371094 156.121094 C -0.304688 187.996094 12.253906 218.621094 35.886719 240.097656 C 44.21875 247.691406 49.445312 257.964844 50.6875 268.921875 C 43.597656 271.597656 38.5625 278.382812 38.5625 286.351562 C 38.5625 296.621094 46.957031 305.023438 57.21875 305.023438 L 57.21875 323.699219 C 57.21875 333.972656 65.613281 342.375 75.875 342.375 C 75.875 359.554688 89.804688 373.5 106.96875 373.5 C 124.132812 373.5 138.0625 359.554688 138.0625 342.375 C 148.320312 342.375 156.71875 333.972656 156.71875 323.699219 L 156.71875 305.023438 C 166.976562 305.023438 175.375 296.621094 175.375 286.351562 C 175.375 278.320312 170.273438 271.535156 163.183594 268.921875 C 164.367188 257.902344 169.402344 247.816406 177.363281 240.660156 C 199.8125 220.613281 212.625 191.917969 212.625 161.851562 C 212.625 131.785156 200.996094 105.453125 179.851562 85.28125 C 158.769531 65.113281 130.972656 54.78125 101.804688 56.148438 Z M 106.96875 361.050781 C 96.707031 361.050781 88.3125 352.644531 88.3125 342.375 L 125.625 342.375 C 125.625 352.644531 117.226562 361.050781 106.96875 361.050781 Z M 144.28125 323.699219 C 144.28125 327.125 141.480469 329.925781 138.0625 329.925781 L 75.875 329.925781 C 72.453125 329.925781 69.65625 327.125 69.65625 323.699219 L 69.65625 305.023438 L 144.28125 305.023438 Z M 156.71875 292.574219 L 57.21875 292.574219 C 53.796875 292.574219 51 289.773438 51 286.351562 C 51 282.925781 53.796875 280.125 57.21875 280.125 L 156.71875 280.125 C 160.136719 280.125 162.9375 282.925781 162.9375 286.351562 C 162.9375 289.773438 160.136719 292.574219 156.71875 292.574219 Z M 169.09375 231.320312 C 158.769531 240.535156 152.300781 253.542969 150.808594 267.675781 L 138.0625 267.675781 L 138.0625 199.199219 L 145.398438 199.199219 C 147.949219 206.421875 154.789062 211.648438 162.9375 211.648438 C 173.195312 211.648438 181.59375 203.246094 181.59375 192.976562 C 181.59375 182.703125 173.195312 174.300781 162.9375 174.300781 C 154.851562 174.300781 148.011719 179.527344 145.398438 186.75 L 131.84375 186.75 C 128.421875 186.75 125.625 189.550781 125.625 192.976562 L 125.625 267.675781 L 113.1875 267.675781 L 113.1875 135.828125 C 120.398438 133.277344 125.625 126.429688 125.625 118.273438 C 125.625 108.003906 117.226562 99.601562 106.96875 99.601562 C 96.707031 99.601562 88.3125 108.003906 88.3125 118.273438 C 88.3125 126.367188 93.535156 133.214844 100.75 135.828125 L 100.75 267.675781 L 88.3125 267.675781 L 88.3125 161.851562 C 88.3125 158.425781 85.511719 155.625 82.09375 155.625 L 68.535156 155.625 C 65.984375 148.402344 59.144531 143.175781 51 143.175781 C 40.738281 143.175781 32.34375 151.578125 32.34375 161.851562 C 32.34375 172.121094 40.738281 180.523438 51 180.523438 C 59.082031 180.523438 65.921875 175.296875 68.535156 168.074219 L 75.875 168.074219 L 75.875 267.675781 L 63.125 267.675781 C 61.570312 253.667969 54.917969 240.535156 44.28125 230.886719 C 23.449219 211.960938 12.316406 184.945312 13.808594 156.808594 C 16.296875 109.558594 55.226562 70.839844 102.425781 68.597656 C 128.234375 67.417969 152.675781 76.503906 171.332031 94.308594 C 189.988281 112.113281 200.25 136.078125 200.25 161.851562 C 200.25 187.621094 188.929688 213.640625 169.09375 231.320312 Z M 156.71875 192.976562 C 156.71875 189.550781 159.515625 186.75 162.9375 186.75 C 166.355469 186.75 169.15625 189.550781 169.15625 192.976562 C 169.15625 196.398438 166.355469 199.199219 162.9375 199.199219 C 159.515625 199.199219 156.71875 196.398438 156.71875 192.976562 Z M 106.96875 124.5 C 103.546875 124.5 100.75 121.699219 100.75 118.273438 C 100.75 114.851562 103.546875 112.050781 106.96875 112.050781 C 110.386719 112.050781 113.1875 114.851562 113.1875 118.273438 C 113.1875 121.699219 110.386719 124.5 106.96875 124.5 Z M 57.21875 161.851562 C 57.21875 165.273438 54.417969 168.074219 51 168.074219 C 47.578125 168.074219 44.78125 165.273438 44.78125 161.851562 C 44.78125 158.425781 47.578125 155.625 51 155.625 C 54.417969 155.625 57.21875 158.425781 57.21875 161.851562 Z M 57.21875 161.851562 " fill-opacity="1" fill-rule="nonzero"/></g><g fill="#000000" fill-opacity="1"><g transform="translate(265.74441, 207.715676)"><g><path d="M 1.359375 -2.734375 C 1.359375 -2.710938 1.359375 -2.691406 1.359375 -2.671875 C 1.359375 -2.648438 1.351562 -2.632812 1.34375 -2.625 C 1.34375 -2.625 1.335938 -2.617188 1.328125 -2.609375 C 1.328125 -2.609375 1.320312 -2.609375 1.3125 -2.609375 C 1.300781 -2.609375 1.285156 -2.609375 1.265625 -2.609375 C 1.253906 -2.617188 1.238281 -2.628906 1.21875 -2.640625 C 1.195312 -2.648438 1.171875 -2.65625 1.140625 -2.65625 C 1.117188 -2.664062 1.085938 -2.671875 1.046875 -2.671875 C 0.992188 -2.671875 0.945312 -2.660156 0.90625 -2.640625 C 0.875 -2.628906 0.847656 -2.601562 0.828125 -2.5625 C 0.804688 -2.53125 0.789062 -2.484375 0.78125 -2.421875 C 0.769531 -2.367188 0.765625 -2.300781 0.765625 -2.21875 L 0.765625 -2.015625 L 1.1875 -2.015625 C 1.195312 -2.015625 1.207031 -2.007812 1.21875 -2 C 1.226562 -2 1.234375 -1.988281 1.234375 -1.96875 C 1.242188 -1.957031 1.25 -1.941406 1.25 -1.921875 C 1.257812 -1.910156 1.265625 -1.890625 1.265625 -1.859375 C 1.265625 -1.804688 1.253906 -1.769531 1.234375 -1.75 C 1.222656 -1.726562 1.207031 -1.71875 1.1875 -1.71875 L 0.765625 -1.71875 L 0.765625 -0.046875 C 0.765625 -0.0351562 0.757812 -0.0234375 0.75 -0.015625 C 0.75 -0.015625 0.738281 -0.0078125 0.71875 0 C 0.707031 0 0.691406 0 0.671875 0 C 0.648438 0.0078125 0.625 0.015625 0.59375 0.015625 C 0.550781 0.015625 0.519531 0.0078125 0.5 0 C 0.476562 0 0.460938 0 0.453125 0 C 0.441406 -0.0078125 0.429688 -0.015625 0.421875 -0.015625 C 0.421875 -0.0234375 0.421875 -0.0351562 0.421875 -0.046875 L 0.421875 -1.71875 L 0.140625 -1.71875 C 0.117188 -1.71875 0.101562 -1.726562 0.09375 -1.75 C 0.0820312 -1.769531 0.078125 -1.804688 0.078125 -1.859375 C 0.078125 -1.890625 0.078125 -1.910156 0.078125 -1.921875 C 0.0859375 -1.941406 0.09375 -1.957031 0.09375 -1.96875 C 0.101562 -1.988281 0.109375 -2 0.109375 -2 C 0.117188 -2.007812 0.128906 -2.015625 0.140625 -2.015625 L 0.421875 -2.015625 L 0.421875 -2.203125 C 0.421875 -2.335938 0.429688 -2.453125 0.453125 -2.546875 C 0.472656 -2.640625 0.507812 -2.71875 0.5625 -2.78125 C 0.613281 -2.84375 0.675781 -2.882812 0.75 -2.90625 C 0.832031 -2.9375 0.925781 -2.953125 1.03125 -2.953125 C 1.070312 -2.953125 1.113281 -2.945312 1.15625 -2.9375 C 1.207031 -2.9375 1.242188 -2.929688 1.265625 -2.921875 C 1.296875 -2.910156 1.316406 -2.898438 1.328125 -2.890625 C 1.335938 -2.878906 1.34375 -2.863281 1.34375 -2.84375 C 1.351562 -2.832031 1.359375 -2.816406 1.359375 -2.796875 C 1.359375 -2.785156 1.359375 -2.765625 1.359375 -2.734375 Z M 1.359375 -2.734375 "/></g></g></g><g fill="#000000" fill-opacity="1"><g transform="translate(267.065212, 207.715676)"><g><path d="M 1.359375 -2.734375 C 1.359375 -2.710938 1.359375 -2.691406 1.359375 -2.671875 C 1.359375 -2.648438 1.351562 -2.632812 1.34375 -2.625 C 1.34375 -2.625 1.335938 -2.617188 1.328125 -2.609375 C 1.328125 -2.609375 1.320312 -2.609375 1.3125 -2.609375 C 1.300781 -2.609375 1.285156 -2.609375 1.265625 -2.609375 C 1.253906 -2.617188 1.238281 -2.628906 1.21875 -2.640625 C 1.195312 -2.648438 1.171875 -2.65625 1.140625 -2.65625 C 1.117188 -2.664062 1.085938 -2.671875 1.046875 -2.671875 C 0.992188 -2.671875 0.945312 -2.660156 0.90625 -2.640625 C 0.875 -2.628906 0.847656 -2.601562 0.828125 -2.5625 C 0.804688 -2.53125 0.789062 -2.484375 0.78125 -2.421875 C 0.769531 -2.367188 0.765625 -2.300781 0.765625 -2.21875 L 0.765625 -2.015625 L 1.1875 -2.015625 C 1.195312 -2.015625 1.207031 -2.007812 1.21875 -2 C 1.226562 -2 1.234375 -1.988281 1.234375 -1.96875 C 1.242188 -1.957031 1.25 -1.941406 1.25 -1.921875 C 1.257812 -1.910156 1.265625 -1.890625 1.265625 -1.859375 C 1.265625 -1.804688 1.253906 -1.769531 1.234375 -1.75 C 1.222656 -1.726562 1.207031 -1.71875 1.1875 -1.71875 L 0.765625 -1.71875 L 0.765625 -0.046875 C 0.765625 -0.0351562 0.757812 -0.0234375 0.75 -0.015625 C 0.75 -0.015625 0.738281 -0.0078125 0.71875 0 C 0.707031 0 0.691406 0 0.671875 0 C 0.648438 0.0078125 0.625 0.015625 0.59375 0.015625 C 0.550781 0.015625 0.519531 0.0078125 0.5 0 C 0.476562 0 0.460938 0 0.453125 0 C 0.441406 -0.0078125 0.429688 -0.015625 0.421875 -0.015625 C 0.421875 -0.0234375 0.421875 -0.0351562 0.421875 -0.046875 L 0.421875 -1.71875 L 0.140625 -1.71875 C 0.117188 -1.71875 0.101562 -1.726562 0.09375 -1.75 C 0.0820312 -1.769531 0.078125 -1.804688 0.078125 -1.859375 C 0.078125 -1.890625 0.078125 -1.910156 0.078125 -1.921875 C 0.0859375 -1.941406 0.09375 -1.957031 0.09375 -1.96875 C 0.101562 -1.988281 0.109375 -2 0.109375 -2 C 0.117188 -2.007812 0.128906 -2.015625 0.140625 -2.015625 L 0.421875 -2.015625 L 0.421875 -2.203125 C 0.421875 -2.335938 0.429688 -2.453125 0.453125 -2.546875 C 0.472656 -2.640625 0.507812 -2.71875 0.5625 -2.78125 C 0.613281 -2.84375 0.675781 -2.882812 0.75 -2.90625 C 0.832031 -2.9375 0.925781 -2.953125 1.03125 -2.953125 C 1.070312 -2.953125 1.113281 -2.945312 1.15625 -2.9375 C 1.207031 -2.9375 1.242188 -2.929688 1.265625 -2.921875 C 1.296875 -2.910156 1.316406 -2.898438 1.328125 -2.890625 C 1.335938 -2.878906 1.34375 -2.863281 1.34375 -2.84375 C 1.351562 -2.832031 1.359375 -2.816406 1.359375 -2.796875 C 1.359375 -2.785156 1.359375 -2.765625 1.359375 -2.734375 Z M 1.359375 -2.734375 "/></g></g></g><g fill="#000000" fill-opacity="1"><g transform="translate(268.386014, 207.715676)"><g><path d="M 1.90625 -1.875 C 1.90625 -1.820312 1.898438 -1.785156 1.890625 -1.765625 C 1.878906 -1.742188 1.863281 -1.734375 1.84375 -1.734375 L 1.5625 -1.734375 C 1.613281 -1.679688 1.648438 -1.625 1.671875 -1.5625 C 1.691406 -1.5 1.703125 -1.4375 1.703125 -1.375 C 1.703125 -1.257812 1.679688 -1.160156 1.640625 -1.078125 C 1.609375 -0.992188 1.5625 -0.921875 1.5 -0.859375 C 1.4375 -0.804688 1.359375 -0.765625 1.265625 -0.734375 C 1.171875 -0.703125 1.070312 -0.6875 0.96875 -0.6875 C 0.882812 -0.6875 0.804688 -0.695312 0.734375 -0.71875 C 0.671875 -0.738281 0.617188 -0.765625 0.578125 -0.796875 C 0.554688 -0.765625 0.535156 -0.734375 0.515625 -0.703125 C 0.503906 -0.671875 0.5 -0.632812 0.5 -0.59375 C 0.5 -0.539062 0.519531 -0.5 0.5625 -0.46875 C 0.601562 -0.4375 0.664062 -0.421875 0.75 -0.421875 L 1.25 -0.390625 C 1.34375 -0.390625 1.425781 -0.378906 1.5 -0.359375 C 1.582031 -0.335938 1.648438 -0.300781 1.703125 -0.25 C 1.765625 -0.207031 1.8125 -0.15625 1.84375 -0.09375 C 1.875 -0.03125 1.890625 0.0390625 1.890625 0.125 C 1.890625 0.207031 1.867188 0.285156 1.828125 0.359375 C 1.796875 0.441406 1.742188 0.515625 1.671875 0.578125 C 1.597656 0.640625 1.5 0.6875 1.375 0.71875 C 1.257812 0.75 1.125 0.765625 0.96875 0.765625 C 0.8125 0.765625 0.675781 0.75 0.5625 0.71875 C 0.457031 0.695312 0.367188 0.664062 0.296875 0.625 C 0.234375 0.582031 0.1875 0.53125 0.15625 0.46875 C 0.125 0.40625 0.109375 0.335938 0.109375 0.265625 C 0.109375 0.210938 0.113281 0.164062 0.125 0.125 C 0.132812 0.0820312 0.148438 0.0390625 0.171875 0 C 0.203125 -0.0390625 0.234375 -0.078125 0.265625 -0.109375 C 0.296875 -0.148438 0.335938 -0.1875 0.390625 -0.21875 C 0.316406 -0.25 0.265625 -0.289062 0.234375 -0.34375 C 0.203125 -0.40625 0.1875 -0.46875 0.1875 -0.53125 C 0.1875 -0.613281 0.203125 -0.6875 0.234375 -0.75 C 0.273438 -0.820312 0.320312 -0.882812 0.375 -0.9375 C 0.320312 -0.988281 0.28125 -1.046875 0.25 -1.109375 C 0.226562 -1.179688 0.21875 -1.265625 0.21875 -1.359375 C 0.21875 -1.460938 0.238281 -1.554688 0.28125 -1.640625 C 0.320312 -1.722656 0.375 -1.796875 0.4375 -1.859375 C 0.5 -1.921875 0.570312 -1.96875 0.65625 -2 C 0.75 -2.03125 0.851562 -2.046875 0.96875 -2.046875 C 1.019531 -2.046875 1.070312 -2.039062 1.125 -2.03125 C 1.175781 -2.03125 1.222656 -2.023438 1.265625 -2.015625 L 1.84375 -2.015625 C 1.863281 -2.015625 1.878906 -2 1.890625 -1.96875 C 1.898438 -1.945312 1.90625 -1.914062 1.90625 -1.875 Z M 1.375 -1.375 C 1.375 -1.5 1.335938 -1.597656 1.265625 -1.671875 C 1.191406 -1.742188 1.085938 -1.78125 0.953125 -1.78125 C 0.890625 -1.78125 0.832031 -1.769531 0.78125 -1.75 C 0.726562 -1.726562 0.6875 -1.695312 0.65625 -1.65625 C 0.625 -1.613281 0.597656 -1.566406 0.578125 -1.515625 C 0.566406 -1.460938 0.5625 -1.410156 0.5625 -1.359375 C 0.5625 -1.234375 0.59375 -1.132812 0.65625 -1.0625 C 0.726562 -0.988281 0.832031 -0.953125 0.96875 -0.953125 C 1.03125 -0.953125 1.085938 -0.960938 1.140625 -0.984375 C 1.191406 -1.003906 1.234375 -1.03125 1.265625 -1.0625 C 1.296875 -1.101562 1.320312 -1.148438 1.34375 -1.203125 C 1.363281 -1.253906 1.375 -1.3125 1.375 -1.375 Z M 1.546875 0.140625 C 1.546875 0.0546875 1.507812 -0.00390625 1.4375 -0.046875 C 1.375 -0.0859375 1.285156 -0.113281 1.171875 -0.125 L 0.671875 -0.140625 C 0.628906 -0.0976562 0.59375 -0.0625 0.5625 -0.03125 C 0.539062 0 0.519531 0.0234375 0.5 0.046875 C 0.476562 0.078125 0.460938 0.109375 0.453125 0.140625 C 0.453125 0.171875 0.453125 0.195312 0.453125 0.21875 C 0.453125 0.3125 0.5 0.378906 0.59375 0.421875 C 0.6875 0.472656 0.816406 0.5 0.984375 0.5 C 1.085938 0.5 1.175781 0.488281 1.25 0.46875 C 1.320312 0.445312 1.378906 0.421875 1.421875 0.390625 C 1.460938 0.359375 1.492188 0.320312 1.515625 0.28125 C 1.535156 0.238281 1.546875 0.191406 1.546875 0.140625 Z M 1.546875 0.140625 "/></g></g></g></svg>