<svg xmlns="http://www.w3.org/2000/svg" xmlns:xlink="http://www.w3.org/1999/xlink" width="500" zoomAndPan="magnify" viewBox="0 0 375 374.999991" height="500" preserveAspectRatio="xMidYMid meet" version="1.0"><defs><g/></defs><path fill="#000000" d="M 223.722656 172.007812 C 223.027344 172.007812 222.335938 172.050781 221.644531 172.136719 C 218.335938 168.074219 213.0625 165.75 207.589844 166.113281 C 204.914062 162.144531 200.484375 159.441406 195.480469 158.929688 L 195.480469 121.890625 C 195.480469 112.683594 188.304688 105.46875 179.136719 105.46875 C 170.101562 105.46875 163.023438 112.683594 163.023438 121.890625 L 163.023438 168.011719 C 159.539062 165.074219 155.386719 163.066406 150.714844 163.066406 C 146.78125 163.066406 142.964844 164.46875 139.96875 167.015625 C 129.402344 176 137.308594 190.808594 142.542969 200.609375 C 143.964844 203.277344 145.3125 205.792969 145.988281 207.636719 C 147.5 211.746094 149.0625 215.984375 150.734375 219.808594 C 154.457031 230.390625 158.644531 237 162.042969 242.367188 C 166.316406 249.097656 168.671875 252.800781 168.671875 261.480469 C 168.671875 265.921875 172.289062 269.53125 176.738281 269.53125 L 219.953125 269.53125 C 224.40625 269.53125 228.027344 265.921875 228.027344 261.480469 C 228.027344 259.292969 230.191406 255.003906 232.140625 251.144531 C 235.734375 243.96875 240.207031 235.035156 240.207031 224.441406 L 240.234375 188.039062 C 240.234375 179.199219 232.828125 172.007812 223.722656 172.007812 Z M 228.488281 224.441406 C 228.488281 232.261719 225.019531 239.195312 221.640625 245.941406 C 219.566406 250.050781 217.582031 253.988281 216.738281 257.8125 L 180.261719 257.8125 C 179.550781 248.070312 175.988281 242.464844 171.90625 236.039062 C 168.839844 231.195312 165.019531 225.167969 161.722656 215.726562 L 161.554688 215.292969 C 159.992188 211.75 158.464844 207.601562 156.9375 203.457031 C 156.03125 200.988281 154.5 198.121094 152.878906 195.089844 C 149.628906 189 144.1875 178.8125 147.558594 175.945312 C 148.4375 175.195312 149.558594 174.785156 150.714844 174.785156 C 155.082031 174.785156 160.699219 181.824219 162.621094 187.878906 C 164.042969 192.371094 167.050781 193.039062 168.71875 193.039062 C 168.722656 193.039062 168.722656 193.039062 168.722656 193.039062 L 171.277344 193.015625 L 173.007812 191.203125 C 174.6875 189.441406 174.8125 187.28125 174.742188 185.871094 L 174.742188 121.890625 C 174.742188 119.210938 176.628906 117.1875 179.136719 117.1875 C 181.773438 117.1875 183.761719 119.210938 183.761719 121.890625 L 183.761719 174.101562 L 191.769531 170.945312 C 194.59375 169.832031 197.941406 171.457031 198.476562 174.085938 L 199.945312 181.273438 L 206.632812 178.25 C 209.089844 177.140625 212.222656 178.292969 213.207031 180.605469 L 215.304688 187.3125 L 221.53125 184.230469 C 222.199219 183.898438 222.957031 183.726562 223.722656 183.726562 C 226.367188 183.726562 228.515625 185.660156 228.515625 188.039062 Z M 228.488281 224.441406 " fill-opacity="1" fill-rule="nonzero"/><path fill="#000000" d="M 187.5 58.59375 C 203.679688 58.59375 216.796875 45.476562 216.796875 29.296875 C 216.796875 13.117188 203.679688 0 187.5 0 C 171.316406 0 158.203125 13.117188 158.203125 29.296875 C 158.203125 45.476562 171.316406 58.59375 187.5 58.59375 Z M 187.5 11.71875 C 197.191406 11.71875 205.078125 19.605469 205.078125 29.296875 C 205.078125 38.988281 197.191406 46.875 187.5 46.875 C 177.808594 46.875 169.921875 38.988281 169.921875 29.296875 C 169.921875 19.605469 177.808594 11.71875 187.5 11.71875 Z M 187.5 11.71875 " fill-opacity="1" fill-rule="nonzero"/><path fill="#000000" d="M 187.5 316.40625 C 171.316406 316.40625 158.203125 329.523438 158.203125 345.703125 C 158.203125 361.886719 171.316406 375 187.5 375 C 203.679688 375 216.796875 361.886719 216.796875 345.703125 C 216.796875 329.523438 203.679688 316.40625 187.5 316.40625 Z M 187.5 363.28125 C 177.808594 363.28125 169.921875 355.394531 169.921875 345.703125 C 169.921875 336.011719 177.808594 328.125 187.5 328.125 C 197.191406 328.125 205.078125 336.011719 205.078125 345.703125 C 205.078125 355.394531 197.191406 363.28125 187.5 363.28125 Z M 187.5 363.28125 " fill-opacity="1" fill-rule="nonzero"/><path fill="#000000" d="M 345.703125 158.203125 C 329.519531 158.203125 316.40625 171.316406 316.40625 187.5 C 316.40625 203.679688 329.519531 216.796875 345.703125 216.796875 C 361.882812 216.796875 375 203.679688 375 187.5 C 375 171.316406 361.882812 158.203125 345.703125 158.203125 Z M 345.703125 205.078125 C 336.011719 205.078125 328.125 197.191406 328.125 187.5 C 328.125 177.808594 336.011719 169.921875 345.703125 169.921875 C 355.394531 169.921875 363.28125 177.808594 363.28125 187.5 C 363.28125 197.191406 355.394531 205.078125 345.703125 205.078125 Z M 345.703125 205.078125 " fill-opacity="1" fill-rule="nonzero"/><path fill="#000000" d="M 58.59375 187.5 C 58.59375 171.316406 45.476562 158.203125 29.296875 158.203125 C 13.113281 158.203125 0 171.316406 0 187.5 C 0 203.679688 13.113281 216.796875 29.296875 216.796875 C 45.476562 216.796875 58.59375 203.679688 58.59375 187.5 Z M 29.296875 205.078125 C 19.605469 205.078125 11.71875 197.191406 11.71875 187.5 C 11.71875 177.808594 19.605469 169.921875 29.296875 169.921875 C 38.988281 169.921875 46.875 177.808594 46.875 187.5 C 46.875 197.191406 38.988281 205.078125 29.296875 205.078125 Z M 29.296875 205.078125 " fill-opacity="1" fill-rule="nonzero"/><path fill="#000000" d="M 298.828125 105.46875 C 315.007812 105.46875 328.125 92.351562 328.125 76.171875 C 328.125 59.992188 315.011719 46.875 298.828125 46.875 C 282.644531 46.875 269.53125 59.992188 269.53125 76.167969 C 269.53125 92.351562 282.644531 105.46875 298.828125 105.46875 Z M 298.828125 58.59375 C 308.519531 58.59375 316.40625 66.476562 316.40625 76.171875 C 316.40625 85.863281 308.519531 93.75 298.828125 93.75 C 289.136719 93.75 281.25 85.863281 281.25 76.167969 C 281.25 66.476562 289.136719 58.59375 298.828125 58.59375 Z M 298.828125 58.59375 " fill-opacity="1" fill-rule="nonzero"/><path fill="#000000" d="M 76.171875 269.53125 C 59.988281 269.53125 46.878906 282.648438 46.875 298.828125 C 46.878906 315.011719 59.992188 328.125 76.171875 328.125 C 92.355469 328.125 105.46875 315.011719 105.46875 298.828125 C 105.46875 282.648438 92.351562 269.53125 76.171875 269.53125 Z M 76.171875 316.40625 C 66.480469 316.40625 58.597656 308.519531 58.59375 298.832031 C 58.597656 289.136719 66.480469 281.25 76.171875 281.25 C 85.863281 281.25 93.75 289.136719 93.75 298.828125 C 93.75 308.519531 85.863281 316.40625 76.171875 316.40625 Z M 76.171875 316.40625 " fill-opacity="1" fill-rule="nonzero"/><path fill="#000000" d="M 298.828125 269.53125 C 282.648438 269.53125 269.535156 282.644531 269.53125 298.828125 C 269.535156 315.007812 282.648438 328.125 298.828125 328.125 C 315.011719 328.125 328.125 315.007812 328.125 298.828125 C 328.125 282.648438 315.011719 269.53125 298.828125 269.53125 Z M 298.828125 316.40625 C 289.136719 316.40625 281.253906 308.519531 281.25 298.832031 C 281.253906 289.136719 289.136719 281.25 298.828125 281.25 C 308.519531 281.25 316.40625 289.136719 316.40625 298.828125 C 316.40625 308.519531 308.519531 316.40625 298.828125 316.40625 Z M 298.828125 316.40625 " fill-opacity="1" fill-rule="nonzero"/><path fill="#000000" d="M 76.171875 46.875 C 59.988281 46.875 46.875 59.992188 46.875 76.171875 C 46.875 92.351562 59.988281 105.46875 76.171875 105.46875 C 92.355469 105.46875 105.46875 92.351562 105.46875 76.171875 C 105.46875 59.988281 92.351562 46.875 76.171875 46.875 Z M 76.171875 93.75 C 66.480469 93.75 58.59375 85.863281 58.59375 76.171875 C 58.59375 66.480469 66.480469 58.59375 76.171875 58.59375 C 85.863281 58.59375 93.75 66.480469 93.75 76.171875 C 93.75 85.863281 85.863281 93.75 76.171875 93.75 Z M 76.171875 93.75 " fill-opacity="1" fill-rule="nonzero"/><g fill="#000000" fill-opacity="1"><g transform="translate(178.215329, 264.559749)"><g><path d="M 1.421875 -1.21875 L 1.421875 -0.0625 C 1.421875 -0.0507812 1.414062 -0.0390625 1.40625 -0.03125 C 1.394531 -0.0195312 1.378906 -0.0078125 1.359375 0 C 1.347656 0 1.328125 0 1.296875 0 C 1.273438 0.0078125 1.242188 0.015625 1.203125 0.015625 C 1.160156 0.015625 1.125 0.0078125 1.09375 0 C 1.070312 0 1.050781 0 1.03125 0 C 1.019531 -0.0078125 1.007812 -0.0195312 1 -0.03125 C 1 -0.0390625 1 -0.0507812 1 -0.0625 L 1 -1.21875 L 0.109375 -2.984375 C 0.0859375 -3.015625 0.078125 -3.039062 0.078125 -3.0625 C 0.078125 -3.082031 0.0820312 -3.097656 0.09375 -3.109375 C 0.101562 -3.128906 0.125 -3.140625 0.15625 -3.140625 C 0.1875 -3.140625 0.226562 -3.140625 0.28125 -3.140625 C 0.332031 -3.140625 0.367188 -3.140625 0.390625 -3.140625 C 0.421875 -3.140625 0.445312 -3.132812 0.46875 -3.125 C 0.488281 -3.125 0.503906 -3.117188 0.515625 -3.109375 C 0.523438 -3.097656 0.53125 -3.082031 0.53125 -3.0625 L 0.96875 -2.15625 C 1.007812 -2.070312 1.050781 -1.984375 1.09375 -1.890625 C 1.132812 -1.796875 1.175781 -1.703125 1.21875 -1.609375 C 1.257812 -1.703125 1.296875 -1.789062 1.328125 -1.875 C 1.367188 -1.96875 1.410156 -2.0625 1.453125 -2.15625 L 1.890625 -3.0625 C 1.890625 -3.070312 1.894531 -3.082031 1.90625 -3.09375 C 1.914062 -3.113281 1.925781 -3.125 1.9375 -3.125 C 1.957031 -3.132812 1.976562 -3.140625 2 -3.140625 C 2.03125 -3.140625 2.066406 -3.140625 2.109375 -3.140625 C 2.171875 -3.140625 2.21875 -3.132812 2.25 -3.125 C 2.28125 -3.125 2.300781 -3.117188 2.3125 -3.109375 C 2.332031 -3.097656 2.335938 -3.082031 2.328125 -3.0625 C 2.328125 -3.039062 2.316406 -3.015625 2.296875 -2.984375 Z M 1.421875 -1.21875 "/></g></g></g><g fill="#000000" fill-opacity="1"><g transform="translate(180.629231, 264.559749)"><g><path d="M 2.390625 -1.171875 C 2.390625 -0.992188 2.363281 -0.828125 2.3125 -0.671875 C 2.269531 -0.523438 2.203125 -0.398438 2.109375 -0.296875 C 2.015625 -0.191406 1.898438 -0.109375 1.765625 -0.046875 C 1.628906 0.015625 1.46875 0.046875 1.28125 0.046875 C 1.101562 0.046875 0.945312 0.0195312 0.8125 -0.03125 C 0.675781 -0.0820312 0.5625 -0.160156 0.46875 -0.265625 C 0.382812 -0.367188 0.320312 -0.492188 0.28125 -0.640625 C 0.238281 -0.785156 0.21875 -0.945312 0.21875 -1.125 C 0.21875 -1.300781 0.238281 -1.460938 0.28125 -1.609375 C 0.332031 -1.765625 0.40625 -1.894531 0.5 -2 C 0.59375 -2.113281 0.707031 -2.195312 0.84375 -2.25 C 0.976562 -2.3125 1.140625 -2.34375 1.328125 -2.34375 C 1.503906 -2.34375 1.660156 -2.316406 1.796875 -2.265625 C 1.929688 -2.210938 2.039062 -2.132812 2.125 -2.03125 C 2.21875 -1.925781 2.285156 -1.800781 2.328125 -1.65625 C 2.367188 -1.519531 2.390625 -1.359375 2.390625 -1.171875 Z M 1.96875 -1.140625 C 1.96875 -1.265625 1.957031 -1.378906 1.9375 -1.484375 C 1.914062 -1.585938 1.878906 -1.675781 1.828125 -1.75 C 1.785156 -1.832031 1.71875 -1.894531 1.625 -1.9375 C 1.539062 -1.988281 1.4375 -2.015625 1.3125 -2.015625 C 1.195312 -2.015625 1.09375 -1.992188 1 -1.953125 C 0.914062 -1.910156 0.847656 -1.847656 0.796875 -1.765625 C 0.742188 -1.691406 0.703125 -1.601562 0.671875 -1.5 C 0.648438 -1.394531 0.640625 -1.28125 0.640625 -1.15625 C 0.640625 -1.039062 0.648438 -0.925781 0.671875 -0.8125 C 0.691406 -0.707031 0.726562 -0.613281 0.78125 -0.53125 C 0.832031 -0.457031 0.898438 -0.398438 0.984375 -0.359375 C 1.066406 -0.316406 1.171875 -0.296875 1.296875 -0.296875 C 1.410156 -0.296875 1.507812 -0.316406 1.59375 -0.359375 C 1.6875 -0.398438 1.757812 -0.457031 1.8125 -0.53125 C 1.863281 -0.601562 1.898438 -0.691406 1.921875 -0.796875 C 1.953125 -0.898438 1.96875 -1.015625 1.96875 -1.140625 Z M 1.96875 -1.140625 "/></g></g></g><g fill="#000000" fill-opacity="1"><g transform="translate(183.241469, 264.559749)"><g><path d="M 2.234375 -0.0625 C 2.234375 -0.0507812 2.226562 -0.0390625 2.21875 -0.03125 C 2.21875 -0.0195312 2.207031 -0.0078125 2.1875 0 C 2.175781 0 2.160156 0 2.140625 0 C 2.117188 0.0078125 2.085938 0.015625 2.046875 0.015625 C 2.015625 0.015625 1.984375 0.0078125 1.953125 0 C 1.929688 0 1.914062 0 1.90625 0 C 1.894531 -0.0078125 1.882812 -0.0195312 1.875 -0.03125 C 1.875 -0.0390625 1.875 -0.0507812 1.875 -0.0625 L 1.875 -0.34375 C 1.75 -0.207031 1.625 -0.109375 1.5 -0.046875 C 1.382812 0.015625 1.265625 0.046875 1.140625 0.046875 C 0.992188 0.046875 0.867188 0.0234375 0.765625 -0.015625 C 0.671875 -0.0664062 0.59375 -0.132812 0.53125 -0.21875 C 0.46875 -0.300781 0.421875 -0.394531 0.390625 -0.5 C 0.367188 -0.613281 0.359375 -0.753906 0.359375 -0.921875 L 0.359375 -2.234375 C 0.359375 -2.242188 0.359375 -2.253906 0.359375 -2.265625 C 0.367188 -2.273438 0.378906 -2.285156 0.390625 -2.296875 C 0.410156 -2.304688 0.429688 -2.3125 0.453125 -2.3125 C 0.484375 -2.3125 0.519531 -2.3125 0.5625 -2.3125 C 0.59375 -2.3125 0.617188 -2.3125 0.640625 -2.3125 C 0.671875 -2.3125 0.691406 -2.304688 0.703125 -2.296875 C 0.722656 -2.285156 0.738281 -2.273438 0.75 -2.265625 C 0.757812 -2.253906 0.765625 -2.242188 0.765625 -2.234375 L 0.765625 -0.96875 C 0.765625 -0.84375 0.769531 -0.738281 0.78125 -0.65625 C 0.800781 -0.582031 0.828125 -0.519531 0.859375 -0.46875 C 0.898438 -0.414062 0.953125 -0.375 1.015625 -0.34375 C 1.078125 -0.3125 1.144531 -0.296875 1.21875 -0.296875 C 1.320312 -0.296875 1.421875 -0.332031 1.515625 -0.40625 C 1.617188 -0.476562 1.722656 -0.582031 1.828125 -0.71875 L 1.828125 -2.234375 C 1.828125 -2.242188 1.828125 -2.253906 1.828125 -2.265625 C 1.835938 -2.273438 1.851562 -2.285156 1.875 -2.296875 C 1.894531 -2.304688 1.914062 -2.3125 1.9375 -2.3125 C 1.957031 -2.3125 1.988281 -2.3125 2.03125 -2.3125 C 2.070312 -2.3125 2.101562 -2.3125 2.125 -2.3125 C 2.15625 -2.3125 2.175781 -2.304688 2.1875 -2.296875 C 2.207031 -2.285156 2.21875 -2.273438 2.21875 -2.265625 C 2.226562 -2.253906 2.234375 -2.242188 2.234375 -2.234375 Z M 2.234375 -0.0625 "/></g></g></g><g fill="#000000" fill-opacity="1"><g transform="translate(185.844033, 264.559749)"><g><path d="M 1.640625 -2.09375 C 1.640625 -2.0625 1.640625 -2.03125 1.640625 -2 C 1.640625 -1.976562 1.632812 -1.957031 1.625 -1.9375 C 1.625 -1.925781 1.617188 -1.914062 1.609375 -1.90625 C 1.597656 -1.90625 1.585938 -1.90625 1.578125 -1.90625 C 1.566406 -1.90625 1.550781 -1.90625 1.53125 -1.90625 C 1.507812 -1.914062 1.488281 -1.925781 1.46875 -1.9375 C 1.445312 -1.945312 1.421875 -1.953125 1.390625 -1.953125 C 1.359375 -1.960938 1.328125 -1.96875 1.296875 -1.96875 C 1.253906 -1.96875 1.210938 -1.957031 1.171875 -1.9375 C 1.140625 -1.925781 1.101562 -1.898438 1.0625 -1.859375 C 1.019531 -1.828125 0.972656 -1.78125 0.921875 -1.71875 C 0.878906 -1.65625 0.828125 -1.582031 0.765625 -1.5 L 0.765625 -0.0625 C 0.765625 -0.0507812 0.757812 -0.0390625 0.75 -0.03125 C 0.75 -0.0195312 0.738281 -0.0078125 0.71875 0 C 0.707031 0 0.6875 0 0.65625 0 C 0.632812 0.0078125 0.601562 0.015625 0.5625 0.015625 C 0.53125 0.015625 0.5 0.0078125 0.46875 0 C 0.445312 0 0.425781 0 0.40625 0 C 0.394531 -0.0078125 0.382812 -0.0195312 0.375 -0.03125 C 0.375 -0.0390625 0.375 -0.0507812 0.375 -0.0625 L 0.375 -2.234375 C 0.375 -2.242188 0.375 -2.253906 0.375 -2.265625 C 0.382812 -2.273438 0.394531 -2.285156 0.40625 -2.296875 C 0.414062 -2.304688 0.429688 -2.3125 0.453125 -2.3125 C 0.484375 -2.3125 0.515625 -2.3125 0.546875 -2.3125 C 0.585938 -2.3125 0.617188 -2.3125 0.640625 -2.3125 C 0.660156 -2.3125 0.675781 -2.304688 0.6875 -2.296875 C 0.707031 -2.285156 0.71875 -2.273438 0.71875 -2.265625 C 0.726562 -2.253906 0.734375 -2.242188 0.734375 -2.234375 L 0.734375 -1.921875 C 0.785156 -2.003906 0.835938 -2.070312 0.890625 -2.125 C 0.953125 -2.1875 1.003906 -2.234375 1.046875 -2.265625 C 1.097656 -2.296875 1.144531 -2.316406 1.1875 -2.328125 C 1.226562 -2.335938 1.273438 -2.34375 1.328125 -2.34375 C 1.347656 -2.34375 1.367188 -2.34375 1.390625 -2.34375 C 1.421875 -2.34375 1.453125 -2.335938 1.484375 -2.328125 C 1.515625 -2.316406 1.539062 -2.304688 1.5625 -2.296875 C 1.582031 -2.296875 1.597656 -2.289062 1.609375 -2.28125 C 1.617188 -2.269531 1.625 -2.257812 1.625 -2.25 C 1.625 -2.25 1.625 -2.242188 1.625 -2.234375 C 1.632812 -2.222656 1.640625 -2.207031 1.640625 -2.1875 C 1.640625 -2.164062 1.640625 -2.132812 1.640625 -2.09375 Z M 1.640625 -2.09375 "/></g></g></g><g fill="#000000" fill-opacity="1"><g transform="translate(187.571013, 264.559749)"><g/></g></g><g fill="#000000" fill-opacity="1"><g transform="translate(188.690889, 264.559749)"><g><path d="M 2.375 -1.1875 C 2.375 -0.988281 2.351562 -0.8125 2.3125 -0.65625 C 2.269531 -0.507812 2.207031 -0.382812 2.125 -0.28125 C 2.050781 -0.175781 1.953125 -0.09375 1.828125 -0.03125 C 1.710938 0.0195312 1.578125 0.046875 1.421875 0.046875 C 1.359375 0.046875 1.300781 0.0351562 1.25 0.015625 C 1.195312 0.00390625 1.144531 -0.0078125 1.09375 -0.03125 C 1.039062 -0.0625 0.988281 -0.0976562 0.9375 -0.140625 C 0.882812 -0.179688 0.828125 -0.226562 0.765625 -0.28125 L 0.765625 0.796875 C 0.765625 0.816406 0.757812 0.828125 0.75 0.828125 C 0.75 0.835938 0.738281 0.847656 0.71875 0.859375 C 0.707031 0.867188 0.6875 0.875 0.65625 0.875 C 0.632812 0.875 0.601562 0.875 0.5625 0.875 C 0.53125 0.875 0.5 0.875 0.46875 0.875 C 0.445312 0.875 0.425781 0.867188 0.40625 0.859375 C 0.394531 0.847656 0.382812 0.835938 0.375 0.828125 C 0.375 0.828125 0.375 0.816406 0.375 0.796875 L 0.375 -2.234375 C 0.375 -2.253906 0.375 -2.265625 0.375 -2.265625 C 0.382812 -2.273438 0.394531 -2.285156 0.40625 -2.296875 C 0.414062 -2.304688 0.429688 -2.3125 0.453125 -2.3125 C 0.484375 -2.3125 0.515625 -2.3125 0.546875 -2.3125 C 0.578125 -2.3125 0.601562 -2.3125 0.625 -2.3125 C 0.644531 -2.3125 0.660156 -2.304688 0.671875 -2.296875 C 0.691406 -2.285156 0.703125 -2.273438 0.703125 -2.265625 C 0.710938 -2.265625 0.71875 -2.253906 0.71875 -2.234375 L 0.71875 -1.9375 C 0.78125 -2.007812 0.84375 -2.070312 0.90625 -2.125 C 0.96875 -2.175781 1.03125 -2.21875 1.09375 -2.25 C 1.15625 -2.28125 1.21875 -2.300781 1.28125 -2.3125 C 1.351562 -2.332031 1.425781 -2.34375 1.5 -2.34375 C 1.65625 -2.34375 1.785156 -2.3125 1.890625 -2.25 C 2.003906 -2.1875 2.097656 -2.101562 2.171875 -2 C 2.242188 -1.894531 2.296875 -1.769531 2.328125 -1.625 C 2.359375 -1.488281 2.375 -1.34375 2.375 -1.1875 Z M 1.953125 -1.140625 C 1.953125 -1.242188 1.941406 -1.347656 1.921875 -1.453125 C 1.910156 -1.554688 1.882812 -1.648438 1.84375 -1.734375 C 1.800781 -1.816406 1.742188 -1.878906 1.671875 -1.921875 C 1.597656 -1.972656 1.515625 -2 1.421875 -2 C 1.367188 -2 1.316406 -1.988281 1.265625 -1.96875 C 1.210938 -1.957031 1.160156 -1.9375 1.109375 -1.90625 C 1.054688 -1.875 1 -1.832031 0.9375 -1.78125 C 0.882812 -1.726562 0.828125 -1.660156 0.765625 -1.578125 L 0.765625 -0.71875 C 0.878906 -0.582031 0.984375 -0.476562 1.078125 -0.40625 C 1.179688 -0.332031 1.285156 -0.296875 1.390625 -0.296875 C 1.492188 -0.296875 1.578125 -0.316406 1.640625 -0.359375 C 1.710938 -0.410156 1.769531 -0.476562 1.8125 -0.5625 C 1.863281 -0.644531 1.898438 -0.734375 1.921875 -0.828125 C 1.941406 -0.929688 1.953125 -1.035156 1.953125 -1.140625 Z M 1.953125 -1.140625 "/></g></g></g><g fill="#000000" fill-opacity="1"><g transform="translate(191.293452, 264.559749)"><g><path d="M 2.015625 -0.0625 C 2.015625 -0.0390625 2.003906 -0.0234375 1.984375 -0.015625 C 1.972656 -0.00390625 1.957031 0 1.9375 0 C 1.914062 0.0078125 1.882812 0.015625 1.84375 0.015625 C 1.800781 0.015625 1.765625 0.0078125 1.734375 0 C 1.710938 0 1.695312 -0.00390625 1.6875 -0.015625 C 1.675781 -0.0234375 1.671875 -0.0390625 1.671875 -0.0625 L 1.671875 -0.28125 C 1.578125 -0.175781 1.46875 -0.09375 1.34375 -0.03125 C 1.226562 0.0195312 1.109375 0.046875 0.984375 0.046875 C 0.867188 0.046875 0.765625 0.03125 0.671875 0 C 0.578125 -0.03125 0.492188 -0.0703125 0.421875 -0.125 C 0.359375 -0.1875 0.304688 -0.253906 0.265625 -0.328125 C 0.234375 -0.410156 0.21875 -0.503906 0.21875 -0.609375 C 0.21875 -0.734375 0.242188 -0.84375 0.296875 -0.9375 C 0.347656 -1.03125 0.421875 -1.101562 0.515625 -1.15625 C 0.609375 -1.21875 0.722656 -1.265625 0.859375 -1.296875 C 0.992188 -1.328125 1.144531 -1.34375 1.3125 -1.34375 L 1.609375 -1.34375 L 1.609375 -1.515625 C 1.609375 -1.597656 1.597656 -1.671875 1.578125 -1.734375 C 1.566406 -1.796875 1.539062 -1.847656 1.5 -1.890625 C 1.457031 -1.929688 1.40625 -1.960938 1.34375 -1.984375 C 1.28125 -2.003906 1.203125 -2.015625 1.109375 -2.015625 C 1.015625 -2.015625 0.925781 -2.003906 0.84375 -1.984375 C 0.769531 -1.960938 0.703125 -1.9375 0.640625 -1.90625 C 0.585938 -1.875 0.539062 -1.847656 0.5 -1.828125 C 0.457031 -1.804688 0.425781 -1.796875 0.40625 -1.796875 C 0.394531 -1.796875 0.382812 -1.796875 0.375 -1.796875 C 0.363281 -1.804688 0.351562 -1.816406 0.34375 -1.828125 C 0.34375 -1.847656 0.335938 -1.867188 0.328125 -1.890625 C 0.328125 -1.910156 0.328125 -1.929688 0.328125 -1.953125 C 0.328125 -1.992188 0.328125 -2.023438 0.328125 -2.046875 C 0.335938 -2.066406 0.351562 -2.085938 0.375 -2.109375 C 0.394531 -2.128906 0.429688 -2.15625 0.484375 -2.1875 C 0.546875 -2.21875 0.609375 -2.242188 0.671875 -2.265625 C 0.742188 -2.285156 0.820312 -2.300781 0.90625 -2.3125 C 0.988281 -2.332031 1.070312 -2.34375 1.15625 -2.34375 C 1.3125 -2.34375 1.441406 -2.320312 1.546875 -2.28125 C 1.660156 -2.25 1.75 -2.195312 1.8125 -2.125 C 1.882812 -2.0625 1.9375 -1.976562 1.96875 -1.875 C 2 -1.78125 2.015625 -1.664062 2.015625 -1.53125 Z M 1.609375 -1.046875 L 1.265625 -1.046875 C 1.160156 -1.046875 1.066406 -1.035156 0.984375 -1.015625 C 0.898438 -1.003906 0.832031 -0.976562 0.78125 -0.9375 C 0.726562 -0.90625 0.6875 -0.863281 0.65625 -0.8125 C 0.632812 -0.757812 0.625 -0.703125 0.625 -0.640625 C 0.625 -0.523438 0.660156 -0.429688 0.734375 -0.359375 C 0.804688 -0.296875 0.910156 -0.265625 1.046875 -0.265625 C 1.148438 -0.265625 1.242188 -0.289062 1.328125 -0.34375 C 1.421875 -0.394531 1.515625 -0.476562 1.609375 -0.59375 Z M 1.609375 -1.046875 "/></g></g></g><g fill="#000000" fill-opacity="1"><g transform="translate(193.666236, 264.559749)"><g><path d="M 1.640625 -2.09375 C 1.640625 -2.0625 1.640625 -2.03125 1.640625 -2 C 1.640625 -1.976562 1.632812 -1.957031 1.625 -1.9375 C 1.625 -1.925781 1.617188 -1.914062 1.609375 -1.90625 C 1.597656 -1.90625 1.585938 -1.90625 1.578125 -1.90625 C 1.566406 -1.90625 1.550781 -1.90625 1.53125 -1.90625 C 1.507812 -1.914062 1.488281 -1.925781 1.46875 -1.9375 C 1.445312 -1.945312 1.421875 -1.953125 1.390625 -1.953125 C 1.359375 -1.960938 1.328125 -1.96875 1.296875 -1.96875 C 1.253906 -1.96875 1.210938 -1.957031 1.171875 -1.9375 C 1.140625 -1.925781 1.101562 -1.898438 1.0625 -1.859375 C 1.019531 -1.828125 0.972656 -1.78125 0.921875 -1.71875 C 0.878906 -1.65625 0.828125 -1.582031 0.765625 -1.5 L 0.765625 -0.0625 C 0.765625 -0.0507812 0.757812 -0.0390625 0.75 -0.03125 C 0.75 -0.0195312 0.738281 -0.0078125 0.71875 0 C 0.707031 0 0.6875 0 0.65625 0 C 0.632812 0.0078125 0.601562 0.015625 0.5625 0.015625 C 0.53125 0.015625 0.5 0.0078125 0.46875 0 C 0.445312 0 0.425781 0 0.40625 0 C 0.394531 -0.0078125 0.382812 -0.0195312 0.375 -0.03125 C 0.375 -0.0390625 0.375 -0.0507812 0.375 -0.0625 L 0.375 -2.234375 C 0.375 -2.242188 0.375 -2.253906 0.375 -2.265625 C 0.382812 -2.273438 0.394531 -2.285156 0.40625 -2.296875 C 0.414062 -2.304688 0.429688 -2.3125 0.453125 -2.3125 C 0.484375 -2.3125 0.515625 -2.3125 0.546875 -2.3125 C 0.585938 -2.3125 0.617188 -2.3125 0.640625 -2.3125 C 0.660156 -2.3125 0.675781 -2.304688 0.6875 -2.296875 C 0.707031 -2.285156 0.71875 -2.273438 0.71875 -2.265625 C 0.726562 -2.253906 0.734375 -2.242188 0.734375 -2.234375 L 0.734375 -1.921875 C 0.785156 -2.003906 0.835938 -2.070312 0.890625 -2.125 C 0.953125 -2.1875 1.003906 -2.234375 1.046875 -2.265625 C 1.097656 -2.296875 1.144531 -2.316406 1.1875 -2.328125 C 1.226562 -2.335938 1.273438 -2.34375 1.328125 -2.34375 C 1.347656 -2.34375 1.367188 -2.34375 1.390625 -2.34375 C 1.421875 -2.34375 1.453125 -2.335938 1.484375 -2.328125 C 1.515625 -2.316406 1.539062 -2.304688 1.5625 -2.296875 C 1.582031 -2.296875 1.597656 -2.289062 1.609375 -2.28125 C 1.617188 -2.269531 1.625 -2.257812 1.625 -2.25 C 1.625 -2.25 1.625 -2.242188 1.625 -2.234375 C 1.632812 -2.222656 1.640625 -2.207031 1.640625 -2.1875 C 1.640625 -2.164062 1.640625 -2.132812 1.640625 -2.09375 Z M 1.640625 -2.09375 "/></g></g></g><g fill="#000000" fill-opacity="1"><g transform="translate(195.393216, 264.559749)"><g><path d="M 2.015625 -0.0625 C 2.015625 -0.0390625 2.003906 -0.0234375 1.984375 -0.015625 C 1.972656 -0.00390625 1.957031 0 1.9375 0 C 1.914062 0.0078125 1.882812 0.015625 1.84375 0.015625 C 1.800781 0.015625 1.765625 0.0078125 1.734375 0 C 1.710938 0 1.695312 -0.00390625 1.6875 -0.015625 C 1.675781 -0.0234375 1.671875 -0.0390625 1.671875 -0.0625 L 1.671875 -0.28125 C 1.578125 -0.175781 1.46875 -0.09375 1.34375 -0.03125 C 1.226562 0.0195312 1.109375 0.046875 0.984375 0.046875 C 0.867188 0.046875 0.765625 0.03125 0.671875 0 C 0.578125 -0.03125 0.492188 -0.0703125 0.421875 -0.125 C 0.359375 -0.1875 0.304688 -0.253906 0.265625 -0.328125 C 0.234375 -0.410156 0.21875 -0.503906 0.21875 -0.609375 C 0.21875 -0.734375 0.242188 -0.84375 0.296875 -0.9375 C 0.347656 -1.03125 0.421875 -1.101562 0.515625 -1.15625 C 0.609375 -1.21875 0.722656 -1.265625 0.859375 -1.296875 C 0.992188 -1.328125 1.144531 -1.34375 1.3125 -1.34375 L 1.609375 -1.34375 L 1.609375 -1.515625 C 1.609375 -1.597656 1.597656 -1.671875 1.578125 -1.734375 C 1.566406 -1.796875 1.539062 -1.847656 1.5 -1.890625 C 1.457031 -1.929688 1.40625 -1.960938 1.34375 -1.984375 C 1.28125 -2.003906 1.203125 -2.015625 1.109375 -2.015625 C 1.015625 -2.015625 0.925781 -2.003906 0.84375 -1.984375 C 0.769531 -1.960938 0.703125 -1.9375 0.640625 -1.90625 C 0.585938 -1.875 0.539062 -1.847656 0.5 -1.828125 C 0.457031 -1.804688 0.425781 -1.796875 0.40625 -1.796875 C 0.394531 -1.796875 0.382812 -1.796875 0.375 -1.796875 C 0.363281 -1.804688 0.351562 -1.816406 0.34375 -1.828125 C 0.34375 -1.847656 0.335938 -1.867188 0.328125 -1.890625 C 0.328125 -1.910156 0.328125 -1.929688 0.328125 -1.953125 C 0.328125 -1.992188 0.328125 -2.023438 0.328125 -2.046875 C 0.335938 -2.066406 0.351562 -2.085938 0.375 -2.109375 C 0.394531 -2.128906 0.429688 -2.15625 0.484375 -2.1875 C 0.546875 -2.21875 0.609375 -2.242188 0.671875 -2.265625 C 0.742188 -2.285156 0.820312 -2.300781 0.90625 -2.3125 C 0.988281 -2.332031 1.070312 -2.34375 1.15625 -2.34375 C 1.3125 -2.34375 1.441406 -2.320312 1.546875 -2.28125 C 1.660156 -2.25 1.75 -2.195312 1.8125 -2.125 C 1.882812 -2.0625 1.9375 -1.976562 1.96875 -1.875 C 2 -1.78125 2.015625 -1.664062 2.015625 -1.53125 Z M 1.609375 -1.046875 L 1.265625 -1.046875 C 1.160156 -1.046875 1.066406 -1.035156 0.984375 -1.015625 C 0.898438 -1.003906 0.832031 -0.976562 0.78125 -0.9375 C 0.726562 -0.90625 0.6875 -0.863281 0.65625 -0.8125 C 0.632812 -0.757812 0.625 -0.703125 0.625 -0.640625 C 0.625 -0.523438 0.660156 -0.429688 0.734375 -0.359375 C 0.804688 -0.296875 0.910156 -0.265625 1.046875 -0.265625 C 1.148438 -0.265625 1.242188 -0.289062 1.328125 -0.34375 C 1.421875 -0.394531 1.515625 -0.476562 1.609375 -0.59375 Z M 1.609375 -1.046875 "/></g></g></g><g fill="#000000" fill-opacity="1"><g transform="translate(197.765999, 264.559749)"><g><path d="M 2.1875 -2.140625 C 2.1875 -2.078125 2.175781 -2.035156 2.15625 -2.015625 C 2.144531 -1.992188 2.128906 -1.984375 2.109375 -1.984375 L 1.796875 -1.984375 C 1.847656 -1.921875 1.882812 -1.851562 1.90625 -1.78125 C 1.9375 -1.71875 1.953125 -1.644531 1.953125 -1.5625 C 1.953125 -1.4375 1.929688 -1.328125 1.890625 -1.234375 C 1.847656 -1.140625 1.785156 -1.054688 1.703125 -0.984375 C 1.628906 -0.921875 1.539062 -0.867188 1.4375 -0.828125 C 1.34375 -0.796875 1.234375 -0.78125 1.109375 -0.78125 C 1.015625 -0.78125 0.925781 -0.789062 0.84375 -0.8125 C 0.769531 -0.832031 0.710938 -0.863281 0.671875 -0.90625 C 0.640625 -0.875 0.613281 -0.835938 0.59375 -0.796875 C 0.570312 -0.765625 0.5625 -0.722656 0.5625 -0.671875 C 0.5625 -0.617188 0.585938 -0.570312 0.640625 -0.53125 C 0.691406 -0.5 0.765625 -0.476562 0.859375 -0.46875 L 1.421875 -0.453125 C 1.523438 -0.453125 1.625 -0.4375 1.71875 -0.40625 C 1.8125 -0.382812 1.890625 -0.347656 1.953125 -0.296875 C 2.015625 -0.242188 2.066406 -0.179688 2.109375 -0.109375 C 2.148438 -0.0351562 2.171875 0.046875 2.171875 0.140625 C 2.171875 0.234375 2.144531 0.328125 2.09375 0.421875 C 2.050781 0.515625 1.988281 0.59375 1.90625 0.65625 C 1.820312 0.726562 1.710938 0.78125 1.578125 0.8125 C 1.441406 0.851562 1.285156 0.875 1.109375 0.875 C 0.929688 0.875 0.78125 0.859375 0.65625 0.828125 C 0.53125 0.804688 0.425781 0.769531 0.34375 0.71875 C 0.269531 0.664062 0.210938 0.601562 0.171875 0.53125 C 0.140625 0.457031 0.125 0.378906 0.125 0.296875 C 0.125 0.242188 0.128906 0.191406 0.140625 0.140625 C 0.160156 0.0859375 0.179688 0.0390625 0.203125 0 C 0.234375 -0.0390625 0.265625 -0.0820312 0.296875 -0.125 C 0.335938 -0.164062 0.382812 -0.207031 0.4375 -0.25 C 0.363281 -0.289062 0.304688 -0.34375 0.265625 -0.40625 C 0.222656 -0.46875 0.203125 -0.535156 0.203125 -0.609375 C 0.203125 -0.703125 0.222656 -0.785156 0.265625 -0.859375 C 0.304688 -0.941406 0.359375 -1.015625 0.421875 -1.078125 C 0.367188 -1.128906 0.328125 -1.191406 0.296875 -1.265625 C 0.273438 -1.347656 0.265625 -1.441406 0.265625 -1.546875 C 0.265625 -1.671875 0.285156 -1.78125 0.328125 -1.875 C 0.367188 -1.976562 0.425781 -2.0625 0.5 -2.125 C 0.570312 -2.195312 0.660156 -2.25 0.765625 -2.28125 C 0.867188 -2.320312 0.984375 -2.34375 1.109375 -2.34375 C 1.171875 -2.34375 1.226562 -2.335938 1.28125 -2.328125 C 1.34375 -2.316406 1.398438 -2.304688 1.453125 -2.296875 L 2.109375 -2.296875 C 2.128906 -2.296875 2.144531 -2.28125 2.15625 -2.25 C 2.175781 -2.226562 2.1875 -2.191406 2.1875 -2.140625 Z M 1.5625 -1.5625 C 1.5625 -1.707031 1.519531 -1.820312 1.4375 -1.90625 C 1.363281 -1.988281 1.25 -2.03125 1.09375 -2.03125 C 1.019531 -2.03125 0.953125 -2.015625 0.890625 -1.984375 C 0.835938 -1.960938 0.789062 -1.929688 0.75 -1.890625 C 0.707031 -1.847656 0.675781 -1.796875 0.65625 -1.734375 C 0.644531 -1.671875 0.640625 -1.609375 0.640625 -1.546875 C 0.640625 -1.398438 0.675781 -1.285156 0.75 -1.203125 C 0.832031 -1.128906 0.953125 -1.09375 1.109375 -1.09375 C 1.179688 -1.09375 1.242188 -1.101562 1.296875 -1.125 C 1.359375 -1.144531 1.410156 -1.175781 1.453125 -1.21875 C 1.492188 -1.269531 1.519531 -1.320312 1.53125 -1.375 C 1.550781 -1.4375 1.5625 -1.5 1.5625 -1.5625 Z M 1.765625 0.15625 C 1.765625 0.0625 1.722656 -0.0078125 1.640625 -0.0625 C 1.566406 -0.113281 1.46875 -0.140625 1.34375 -0.140625 L 0.78125 -0.15625 C 0.726562 -0.113281 0.679688 -0.0703125 0.640625 -0.03125 C 0.609375 0 0.582031 0.03125 0.5625 0.0625 C 0.550781 0.09375 0.539062 0.125 0.53125 0.15625 C 0.519531 0.1875 0.515625 0.222656 0.515625 0.265625 C 0.515625 0.367188 0.566406 0.445312 0.671875 0.5 C 0.785156 0.550781 0.9375 0.578125 1.125 0.578125 C 1.25 0.578125 1.347656 0.566406 1.421875 0.546875 C 1.503906 0.523438 1.570312 0.492188 1.625 0.453125 C 1.675781 0.410156 1.710938 0.363281 1.734375 0.3125 C 1.753906 0.257812 1.765625 0.207031 1.765625 0.15625 Z M 1.765625 0.15625 "/></g></g></g><g fill="#000000" fill-opacity="1"><g transform="translate(200.097663, 264.559749)"><g><path d="M 1.640625 -2.09375 C 1.640625 -2.0625 1.640625 -2.03125 1.640625 -2 C 1.640625 -1.976562 1.632812 -1.957031 1.625 -1.9375 C 1.625 -1.925781 1.617188 -1.914062 1.609375 -1.90625 C 1.597656 -1.90625 1.585938 -1.90625 1.578125 -1.90625 C 1.566406 -1.90625 1.550781 -1.90625 1.53125 -1.90625 C 1.507812 -1.914062 1.488281 -1.925781 1.46875 -1.9375 C 1.445312 -1.945312 1.421875 -1.953125 1.390625 -1.953125 C 1.359375 -1.960938 1.328125 -1.96875 1.296875 -1.96875 C 1.253906 -1.96875 1.210938 -1.957031 1.171875 -1.9375 C 1.140625 -1.925781 1.101562 -1.898438 1.0625 -1.859375 C 1.019531 -1.828125 0.972656 -1.78125 0.921875 -1.71875 C 0.878906 -1.65625 0.828125 -1.582031 0.765625 -1.5 L 0.765625 -0.0625 C 0.765625 -0.0507812 0.757812 -0.0390625 0.75 -0.03125 C 0.75 -0.0195312 0.738281 -0.0078125 0.71875 0 C 0.707031 0 0.6875 0 0.65625 0 C 0.632812 0.0078125 0.601562 0.015625 0.5625 0.015625 C 0.53125 0.015625 0.5 0.0078125 0.46875 0 C 0.445312 0 0.425781 0 0.40625 0 C 0.394531 -0.0078125 0.382812 -0.0195312 0.375 -0.03125 C 0.375 -0.0390625 0.375 -0.0507812 0.375 -0.0625 L 0.375 -2.234375 C 0.375 -2.242188 0.375 -2.253906 0.375 -2.265625 C 0.382812 -2.273438 0.394531 -2.285156 0.40625 -2.296875 C 0.414062 -2.304688 0.429688 -2.3125 0.453125 -2.3125 C 0.484375 -2.3125 0.515625 -2.3125 0.546875 -2.3125 C 0.585938 -2.3125 0.617188 -2.3125 0.640625 -2.3125 C 0.660156 -2.3125 0.675781 -2.304688 0.6875 -2.296875 C 0.707031 -2.285156 0.71875 -2.273438 0.71875 -2.265625 C 0.726562 -2.253906 0.734375 -2.242188 0.734375 -2.234375 L 0.734375 -1.921875 C 0.785156 -2.003906 0.835938 -2.070312 0.890625 -2.125 C 0.953125 -2.1875 1.003906 -2.234375 1.046875 -2.265625 C 1.097656 -2.296875 1.144531 -2.316406 1.1875 -2.328125 C 1.226562 -2.335938 1.273438 -2.34375 1.328125 -2.34375 C 1.347656 -2.34375 1.367188 -2.34375 1.390625 -2.34375 C 1.421875 -2.34375 1.453125 -2.335938 1.484375 -2.328125 C 1.515625 -2.316406 1.539062 -2.304688 1.5625 -2.296875 C 1.582031 -2.296875 1.597656 -2.289062 1.609375 -2.28125 C 1.617188 -2.269531 1.625 -2.257812 1.625 -2.25 C 1.625 -2.25 1.625 -2.242188 1.625 -2.234375 C 1.632812 -2.222656 1.640625 -2.207031 1.640625 -2.1875 C 1.640625 -2.164062 1.640625 -2.132812 1.640625 -2.09375 Z M 1.640625 -2.09375 "/></g></g></g><g fill="#000000" fill-opacity="1"><g transform="translate(201.824643, 264.559749)"><g><path d="M 2.015625 -0.0625 C 2.015625 -0.0390625 2.003906 -0.0234375 1.984375 -0.015625 C 1.972656 -0.00390625 1.957031 0 1.9375 0 C 1.914062 0.0078125 1.882812 0.015625 1.84375 0.015625 C 1.800781 0.015625 1.765625 0.0078125 1.734375 0 C 1.710938 0 1.695312 -0.00390625 1.6875 -0.015625 C 1.675781 -0.0234375 1.671875 -0.0390625 1.671875 -0.0625 L 1.671875 -0.28125 C 1.578125 -0.175781 1.46875 -0.09375 1.34375 -0.03125 C 1.226562 0.0195312 1.109375 0.046875 0.984375 0.046875 C 0.867188 0.046875 0.765625 0.03125 0.671875 0 C 0.578125 -0.03125 0.492188 -0.0703125 0.421875 -0.125 C 0.359375 -0.1875 0.304688 -0.253906 0.265625 -0.328125 C 0.234375 -0.410156 0.21875 -0.503906 0.21875 -0.609375 C 0.21875 -0.734375 0.242188 -0.84375 0.296875 -0.9375 C 0.347656 -1.03125 0.421875 -1.101562 0.515625 -1.15625 C 0.609375 -1.21875 0.722656 -1.265625 0.859375 -1.296875 C 0.992188 -1.328125 1.144531 -1.34375 1.3125 -1.34375 L 1.609375 -1.34375 L 1.609375 -1.515625 C 1.609375 -1.597656 1.597656 -1.671875 1.578125 -1.734375 C 1.566406 -1.796875 1.539062 -1.847656 1.5 -1.890625 C 1.457031 -1.929688 1.40625 -1.960938 1.34375 -1.984375 C 1.28125 -2.003906 1.203125 -2.015625 1.109375 -2.015625 C 1.015625 -2.015625 0.925781 -2.003906 0.84375 -1.984375 C 0.769531 -1.960938 0.703125 -1.9375 0.640625 -1.90625 C 0.585938 -1.875 0.539062 -1.847656 0.5 -1.828125 C 0.457031 -1.804688 0.425781 -1.796875 0.40625 -1.796875 C 0.394531 -1.796875 0.382812 -1.796875 0.375 -1.796875 C 0.363281 -1.804688 0.351562 -1.816406 0.34375 -1.828125 C 0.34375 -1.847656 0.335938 -1.867188 0.328125 -1.890625 C 0.328125 -1.910156 0.328125 -1.929688 0.328125 -1.953125 C 0.328125 -1.992188 0.328125 -2.023438 0.328125 -2.046875 C 0.335938 -2.066406 0.351562 -2.085938 0.375 -2.109375 C 0.394531 -2.128906 0.429688 -2.15625 0.484375 -2.1875 C 0.546875 -2.21875 0.609375 -2.242188 0.671875 -2.265625 C 0.742188 -2.285156 0.820312 -2.300781 0.90625 -2.3125 C 0.988281 -2.332031 1.070312 -2.34375 1.15625 -2.34375 C 1.3125 -2.34375 1.441406 -2.320312 1.546875 -2.28125 C 1.660156 -2.25 1.75 -2.195312 1.8125 -2.125 C 1.882812 -2.0625 1.9375 -1.976562 1.96875 -1.875 C 2 -1.78125 2.015625 -1.664062 2.015625 -1.53125 Z M 1.609375 -1.046875 L 1.265625 -1.046875 C 1.160156 -1.046875 1.066406 -1.035156 0.984375 -1.015625 C 0.898438 -1.003906 0.832031 -0.976562 0.78125 -0.9375 C 0.726562 -0.90625 0.6875 -0.863281 0.65625 -0.8125 C 0.632812 -0.757812 0.625 -0.703125 0.625 -0.640625 C 0.625 -0.523438 0.660156 -0.429688 0.734375 -0.359375 C 0.804688 -0.296875 0.910156 -0.265625 1.046875 -0.265625 C 1.148438 -0.265625 1.242188 -0.289062 1.328125 -0.34375 C 1.421875 -0.394531 1.515625 -0.476562 1.609375 -0.59375 Z M 1.609375 -1.046875 "/></g></g></g><g fill="#000000" fill-opacity="1"><g transform="translate(204.197426, 264.559749)"><g><path d="M 2.375 -1.1875 C 2.375 -0.988281 2.351562 -0.8125 2.3125 -0.65625 C 2.269531 -0.507812 2.207031 -0.382812 2.125 -0.28125 C 2.050781 -0.175781 1.953125 -0.09375 1.828125 -0.03125 C 1.710938 0.0195312 1.578125 0.046875 1.421875 0.046875 C 1.359375 0.046875 1.300781 0.0351562 1.25 0.015625 C 1.195312 0.00390625 1.144531 -0.0078125 1.09375 -0.03125 C 1.039062 -0.0625 0.988281 -0.0976562 0.9375 -0.140625 C 0.882812 -0.179688 0.828125 -0.226562 0.765625 -0.28125 L 0.765625 0.796875 C 0.765625 0.816406 0.757812 0.828125 0.75 0.828125 C 0.75 0.835938 0.738281 0.847656 0.71875 0.859375 C 0.707031 0.867188 0.6875 0.875 0.65625 0.875 C 0.632812 0.875 0.601562 0.875 0.5625 0.875 C 0.53125 0.875 0.5 0.875 0.46875 0.875 C 0.445312 0.875 0.425781 0.867188 0.40625 0.859375 C 0.394531 0.847656 0.382812 0.835938 0.375 0.828125 C 0.375 0.828125 0.375 0.816406 0.375 0.796875 L 0.375 -2.234375 C 0.375 -2.253906 0.375 -2.265625 0.375 -2.265625 C 0.382812 -2.273438 0.394531 -2.285156 0.40625 -2.296875 C 0.414062 -2.304688 0.429688 -2.3125 0.453125 -2.3125 C 0.484375 -2.3125 0.515625 -2.3125 0.546875 -2.3125 C 0.578125 -2.3125 0.601562 -2.3125 0.625 -2.3125 C 0.644531 -2.3125 0.660156 -2.304688 0.671875 -2.296875 C 0.691406 -2.285156 0.703125 -2.273438 0.703125 -2.265625 C 0.710938 -2.265625 0.71875 -2.253906 0.71875 -2.234375 L 0.71875 -1.9375 C 0.78125 -2.007812 0.84375 -2.070312 0.90625 -2.125 C 0.96875 -2.175781 1.03125 -2.21875 1.09375 -2.25 C 1.15625 -2.28125 1.21875 -2.300781 1.28125 -2.3125 C 1.351562 -2.332031 1.425781 -2.34375 1.5 -2.34375 C 1.65625 -2.34375 1.785156 -2.3125 1.890625 -2.25 C 2.003906 -2.1875 2.097656 -2.101562 2.171875 -2 C 2.242188 -1.894531 2.296875 -1.769531 2.328125 -1.625 C 2.359375 -1.488281 2.375 -1.34375 2.375 -1.1875 Z M 1.953125 -1.140625 C 1.953125 -1.242188 1.941406 -1.347656 1.921875 -1.453125 C 1.910156 -1.554688 1.882812 -1.648438 1.84375 -1.734375 C 1.800781 -1.816406 1.742188 -1.878906 1.671875 -1.921875 C 1.597656 -1.972656 1.515625 -2 1.421875 -2 C 1.367188 -2 1.316406 -1.988281 1.265625 -1.96875 C 1.210938 -1.957031 1.160156 -1.9375 1.109375 -1.90625 C 1.054688 -1.875 1 -1.832031 0.9375 -1.78125 C 0.882812 -1.726562 0.828125 -1.660156 0.765625 -1.578125 L 0.765625 -0.71875 C 0.878906 -0.582031 0.984375 -0.476562 1.078125 -0.40625 C 1.179688 -0.332031 1.285156 -0.296875 1.390625 -0.296875 C 1.492188 -0.296875 1.578125 -0.316406 1.640625 -0.359375 C 1.710938 -0.410156 1.769531 -0.476562 1.8125 -0.5625 C 1.863281 -0.644531 1.898438 -0.734375 1.921875 -0.828125 C 1.941406 -0.929688 1.953125 -1.035156 1.953125 -1.140625 Z M 1.953125 -1.140625 "/></g></g></g><g fill="#000000" fill-opacity="1"><g transform="translate(206.79999, 264.559749)"><g><path d="M 2.25 -0.0625 C 2.25 -0.0507812 2.242188 -0.0390625 2.234375 -0.03125 C 2.222656 -0.0195312 2.210938 -0.0078125 2.203125 0 C 2.191406 0 2.171875 0 2.140625 0 C 2.117188 0.0078125 2.085938 0.015625 2.046875 0.015625 C 2.003906 0.015625 1.96875 0.0078125 1.9375 0 C 1.914062 0 1.894531 0 1.875 0 C 1.863281 -0.0078125 1.851562 -0.0195312 1.84375 -0.03125 C 1.84375 -0.0390625 1.84375 -0.0507812 1.84375 -0.0625 L 1.84375 -1.328125 C 1.84375 -1.453125 1.832031 -1.550781 1.8125 -1.625 C 1.789062 -1.707031 1.757812 -1.773438 1.71875 -1.828125 C 1.6875 -1.878906 1.640625 -1.921875 1.578125 -1.953125 C 1.523438 -1.984375 1.460938 -2 1.390625 -2 C 1.285156 -2 1.179688 -1.960938 1.078125 -1.890625 C 0.984375 -1.816406 0.878906 -1.710938 0.765625 -1.578125 L 0.765625 -0.0625 C 0.765625 -0.0507812 0.757812 -0.0390625 0.75 -0.03125 C 0.75 -0.0195312 0.738281 -0.0078125 0.71875 0 C 0.707031 0 0.6875 0 0.65625 0 C 0.632812 0.0078125 0.601562 0.015625 0.5625 0.015625 C 0.53125 0.015625 0.5 0.0078125 0.46875 0 C 0.445312 0 0.425781 0 0.40625 0 C 0.394531 -0.0078125 0.382812 -0.0195312 0.375 -0.03125 C 0.375 -0.0390625 0.375 -0.0507812 0.375 -0.0625 L 0.375 -3.296875 C 0.375 -3.304688 0.375 -3.316406 0.375 -3.328125 C 0.382812 -3.335938 0.394531 -3.34375 0.40625 -3.34375 C 0.425781 -3.351562 0.445312 -3.359375 0.46875 -3.359375 C 0.5 -3.367188 0.53125 -3.375 0.5625 -3.375 C 0.601562 -3.375 0.632812 -3.367188 0.65625 -3.359375 C 0.6875 -3.359375 0.707031 -3.351562 0.71875 -3.34375 C 0.738281 -3.34375 0.75 -3.335938 0.75 -3.328125 C 0.757812 -3.316406 0.765625 -3.304688 0.765625 -3.296875 L 0.765625 -1.984375 C 0.878906 -2.109375 0.992188 -2.195312 1.109375 -2.25 C 1.234375 -2.3125 1.351562 -2.34375 1.46875 -2.34375 C 1.613281 -2.34375 1.734375 -2.316406 1.828125 -2.265625 C 1.929688 -2.222656 2.015625 -2.160156 2.078125 -2.078125 C 2.140625 -1.992188 2.179688 -1.894531 2.203125 -1.78125 C 2.234375 -1.675781 2.25 -1.546875 2.25 -1.390625 Z M 2.25 -0.0625 "/></g></g></g><g fill="#000000" fill-opacity="1"><g transform="translate(209.402553, 264.559749)"><g/></g></g><g fill="#000000" fill-opacity="1"><g transform="translate(210.52243, 264.559749)"><g><path d="M 1.5 -0.21875 C 1.5 -0.175781 1.492188 -0.140625 1.484375 -0.109375 C 1.484375 -0.078125 1.472656 -0.0546875 1.453125 -0.046875 C 1.441406 -0.0351562 1.421875 -0.0234375 1.390625 -0.015625 C 1.367188 -0.00390625 1.34375 0.00390625 1.3125 0.015625 C 1.28125 0.0234375 1.242188 0.03125 1.203125 0.03125 C 1.171875 0.0390625 1.132812 0.046875 1.09375 0.046875 C 0.988281 0.046875 0.894531 0.03125 0.8125 0 C 0.726562 -0.03125 0.660156 -0.078125 0.609375 -0.140625 C 0.554688 -0.203125 0.519531 -0.28125 0.5 -0.375 C 0.476562 -0.46875 0.46875 -0.578125 0.46875 -0.703125 L 0.46875 -1.96875 L 0.15625 -1.96875 C 0.132812 -1.96875 0.113281 -1.976562 0.09375 -2 C 0.0820312 -2.03125 0.078125 -2.078125 0.078125 -2.140625 C 0.078125 -2.160156 0.078125 -2.179688 0.078125 -2.203125 C 0.0859375 -2.222656 0.09375 -2.238281 0.09375 -2.25 C 0.101562 -2.269531 0.113281 -2.28125 0.125 -2.28125 C 0.132812 -2.289062 0.144531 -2.296875 0.15625 -2.296875 L 0.46875 -2.296875 L 0.46875 -2.8125 C 0.46875 -2.820312 0.46875 -2.832031 0.46875 -2.84375 C 0.476562 -2.851562 0.488281 -2.863281 0.5 -2.875 C 0.519531 -2.882812 0.539062 -2.890625 0.5625 -2.890625 C 0.59375 -2.890625 0.625 -2.890625 0.65625 -2.890625 C 0.695312 -2.890625 0.726562 -2.890625 0.75 -2.890625 C 0.78125 -2.890625 0.800781 -2.882812 0.8125 -2.875 C 0.832031 -2.863281 0.84375 -2.851562 0.84375 -2.84375 C 0.851562 -2.832031 0.859375 -2.820312 0.859375 -2.8125 L 0.859375 -2.296875 L 1.421875 -2.296875 C 1.429688 -2.296875 1.441406 -2.289062 1.453125 -2.28125 C 1.460938 -2.28125 1.472656 -2.269531 1.484375 -2.25 C 1.492188 -2.238281 1.5 -2.222656 1.5 -2.203125 C 1.5 -2.179688 1.5 -2.160156 1.5 -2.140625 C 1.5 -2.078125 1.488281 -2.03125 1.46875 -2 C 1.457031 -1.976562 1.441406 -1.96875 1.421875 -1.96875 L 0.859375 -1.96875 L 0.859375 -0.75 C 0.859375 -0.601562 0.878906 -0.488281 0.921875 -0.40625 C 0.972656 -0.332031 1.054688 -0.296875 1.171875 -0.296875 C 1.203125 -0.296875 1.234375 -0.300781 1.265625 -0.3125 C 1.296875 -0.320312 1.320312 -0.328125 1.34375 -0.328125 C 1.363281 -0.335938 1.378906 -0.347656 1.390625 -0.359375 C 1.410156 -0.367188 1.429688 -0.375 1.453125 -0.375 C 1.453125 -0.375 1.457031 -0.367188 1.46875 -0.359375 C 1.476562 -0.359375 1.484375 -0.351562 1.484375 -0.34375 C 1.492188 -0.332031 1.5 -0.316406 1.5 -0.296875 C 1.5 -0.273438 1.5 -0.25 1.5 -0.21875 Z M 1.5 -0.21875 "/></g></g></g><g fill="#000000" fill-opacity="1"><g transform="translate(212.181685, 264.559749)"><g><path d="M 2.234375 -1.25 C 2.234375 -1.1875 2.21875 -1.140625 2.1875 -1.109375 C 2.15625 -1.078125 2.117188 -1.0625 2.078125 -1.0625 L 0.640625 -1.0625 C 0.640625 -0.945312 0.648438 -0.835938 0.671875 -0.734375 C 0.703125 -0.640625 0.742188 -0.554688 0.796875 -0.484375 C 0.859375 -0.421875 0.929688 -0.367188 1.015625 -0.328125 C 1.109375 -0.296875 1.222656 -0.28125 1.359375 -0.28125 C 1.460938 -0.28125 1.550781 -0.285156 1.625 -0.296875 C 1.707031 -0.316406 1.773438 -0.335938 1.828125 -0.359375 C 1.890625 -0.378906 1.941406 -0.394531 1.984375 -0.40625 C 2.023438 -0.425781 2.050781 -0.4375 2.0625 -0.4375 C 2.082031 -0.4375 2.09375 -0.429688 2.09375 -0.421875 C 2.101562 -0.421875 2.109375 -0.414062 2.109375 -0.40625 C 2.117188 -0.394531 2.125 -0.378906 2.125 -0.359375 C 2.132812 -0.335938 2.140625 -0.3125 2.140625 -0.28125 C 2.140625 -0.257812 2.132812 -0.238281 2.125 -0.21875 C 2.125 -0.207031 2.125 -0.195312 2.125 -0.1875 C 2.125 -0.175781 2.117188 -0.164062 2.109375 -0.15625 C 2.109375 -0.144531 2.101562 -0.132812 2.09375 -0.125 C 2.082031 -0.125 2.054688 -0.113281 2.015625 -0.09375 C 1.972656 -0.0703125 1.914062 -0.0507812 1.84375 -0.03125 C 1.769531 -0.0078125 1.6875 0.00390625 1.59375 0.015625 C 1.507812 0.0351562 1.414062 0.046875 1.3125 0.046875 C 1.132812 0.046875 0.976562 0.0195312 0.84375 -0.03125 C 0.707031 -0.0820312 0.59375 -0.15625 0.5 -0.25 C 0.40625 -0.351562 0.332031 -0.476562 0.28125 -0.625 C 0.238281 -0.769531 0.21875 -0.941406 0.21875 -1.140625 C 0.21875 -1.328125 0.242188 -1.492188 0.296875 -1.640625 C 0.347656 -1.785156 0.414062 -1.910156 0.5 -2.015625 C 0.59375 -2.117188 0.703125 -2.195312 0.828125 -2.25 C 0.960938 -2.3125 1.109375 -2.34375 1.265625 -2.34375 C 1.441406 -2.34375 1.585938 -2.316406 1.703125 -2.265625 C 1.828125 -2.210938 1.925781 -2.140625 2 -2.046875 C 2.082031 -1.953125 2.140625 -1.84375 2.171875 -1.71875 C 2.210938 -1.59375 2.234375 -1.457031 2.234375 -1.3125 Z M 1.828125 -1.359375 C 1.828125 -1.566406 1.78125 -1.726562 1.6875 -1.84375 C 1.59375 -1.96875 1.445312 -2.03125 1.25 -2.03125 C 1.15625 -2.03125 1.066406 -2.007812 0.984375 -1.96875 C 0.910156 -1.9375 0.847656 -1.890625 0.796875 -1.828125 C 0.753906 -1.765625 0.71875 -1.691406 0.6875 -1.609375 C 0.664062 -1.535156 0.648438 -1.453125 0.640625 -1.359375 Z M 1.828125 -1.359375 "/></g></g></g><g fill="#000000" fill-opacity="1"><g transform="translate(214.64638, 264.559749)"><g><path d="M 2.015625 -0.109375 C 2.023438 -0.0859375 2.03125 -0.0664062 2.03125 -0.046875 C 2.03125 -0.0351562 2.023438 -0.0234375 2.015625 -0.015625 C 2.003906 -0.00390625 1.984375 0 1.953125 0 C 1.921875 0.0078125 1.878906 0.015625 1.828125 0.015625 C 1.773438 0.015625 1.734375 0.0078125 1.703125 0 C 1.679688 0 1.660156 0 1.640625 0 C 1.617188 -0.0078125 1.601562 -0.015625 1.59375 -0.015625 C 1.59375 -0.0234375 1.585938 -0.0351562 1.578125 -0.046875 L 1.0625 -0.921875 L 0.53125 -0.046875 C 0.53125 -0.0351562 0.523438 -0.0234375 0.515625 -0.015625 C 0.503906 -0.015625 0.488281 -0.0078125 0.46875 0 C 0.457031 0 0.4375 0 0.40625 0 C 0.382812 0.0078125 0.347656 0.015625 0.296875 0.015625 C 0.253906 0.015625 0.21875 0.0078125 0.1875 0 C 0.15625 0 0.128906 -0.00390625 0.109375 -0.015625 C 0.0976562 -0.0234375 0.09375 -0.0351562 0.09375 -0.046875 C 0.101562 -0.0664062 0.113281 -0.0859375 0.125 -0.109375 L 0.796875 -1.171875 L 0.15625 -2.1875 C 0.144531 -2.207031 0.140625 -2.222656 0.140625 -2.234375 C 0.140625 -2.253906 0.144531 -2.269531 0.15625 -2.28125 C 0.175781 -2.289062 0.203125 -2.296875 0.234375 -2.296875 C 0.265625 -2.304688 0.304688 -2.3125 0.359375 -2.3125 C 0.398438 -2.3125 0.4375 -2.3125 0.46875 -2.3125 C 0.5 -2.3125 0.519531 -2.304688 0.53125 -2.296875 C 0.550781 -2.296875 0.5625 -2.289062 0.5625 -2.28125 C 0.570312 -2.269531 0.582031 -2.257812 0.59375 -2.25 L 1.09375 -1.4375 L 1.59375 -2.25 C 1.59375 -2.257812 1.597656 -2.265625 1.609375 -2.265625 C 1.617188 -2.273438 1.628906 -2.285156 1.640625 -2.296875 C 1.660156 -2.304688 1.679688 -2.3125 1.703125 -2.3125 C 1.722656 -2.3125 1.757812 -2.3125 1.8125 -2.3125 C 1.851562 -2.3125 1.890625 -2.304688 1.921875 -2.296875 C 1.953125 -2.296875 1.972656 -2.289062 1.984375 -2.28125 C 2.003906 -2.28125 2.007812 -2.269531 2 -2.25 C 2 -2.238281 1.992188 -2.21875 1.984375 -2.1875 L 1.34375 -1.1875 Z M 2.015625 -0.109375 "/></g></g></g><g fill="#000000" fill-opacity="1"><g transform="translate(216.7918, 264.559749)"><g><path d="M 1.5 -0.21875 C 1.5 -0.175781 1.492188 -0.140625 1.484375 -0.109375 C 1.484375 -0.078125 1.472656 -0.0546875 1.453125 -0.046875 C 1.441406 -0.0351562 1.421875 -0.0234375 1.390625 -0.015625 C 1.367188 -0.00390625 1.34375 0.00390625 1.3125 0.015625 C 1.28125 0.0234375 1.242188 0.03125 1.203125 0.03125 C 1.171875 0.0390625 1.132812 0.046875 1.09375 0.046875 C 0.988281 0.046875 0.894531 0.03125 0.8125 0 C 0.726562 -0.03125 0.660156 -0.078125 0.609375 -0.140625 C 0.554688 -0.203125 0.519531 -0.28125 0.5 -0.375 C 0.476562 -0.46875 0.46875 -0.578125 0.46875 -0.703125 L 0.46875 -1.96875 L 0.15625 -1.96875 C 0.132812 -1.96875 0.113281 -1.976562 0.09375 -2 C 0.0820312 -2.03125 0.078125 -2.078125 0.078125 -2.140625 C 0.078125 -2.160156 0.078125 -2.179688 0.078125 -2.203125 C 0.0859375 -2.222656 0.09375 -2.238281 0.09375 -2.25 C 0.101562 -2.269531 0.113281 -2.28125 0.125 -2.28125 C 0.132812 -2.289062 0.144531 -2.296875 0.15625 -2.296875 L 0.46875 -2.296875 L 0.46875 -2.8125 C 0.46875 -2.820312 0.46875 -2.832031 0.46875 -2.84375 C 0.476562 -2.851562 0.488281 -2.863281 0.5 -2.875 C 0.519531 -2.882812 0.539062 -2.890625 0.5625 -2.890625 C 0.59375 -2.890625 0.625 -2.890625 0.65625 -2.890625 C 0.695312 -2.890625 0.726562 -2.890625 0.75 -2.890625 C 0.78125 -2.890625 0.800781 -2.882812 0.8125 -2.875 C 0.832031 -2.863281 0.84375 -2.851562 0.84375 -2.84375 C 0.851562 -2.832031 0.859375 -2.820312 0.859375 -2.8125 L 0.859375 -2.296875 L 1.421875 -2.296875 C 1.429688 -2.296875 1.441406 -2.289062 1.453125 -2.28125 C 1.460938 -2.28125 1.472656 -2.269531 1.484375 -2.25 C 1.492188 -2.238281 1.5 -2.222656 1.5 -2.203125 C 1.5 -2.179688 1.5 -2.160156 1.5 -2.140625 C 1.5 -2.078125 1.488281 -2.03125 1.46875 -2 C 1.457031 -1.976562 1.441406 -1.96875 1.421875 -1.96875 L 0.859375 -1.96875 L 0.859375 -0.75 C 0.859375 -0.601562 0.878906 -0.488281 0.921875 -0.40625 C 0.972656 -0.332031 1.054688 -0.296875 1.171875 -0.296875 C 1.203125 -0.296875 1.234375 -0.300781 1.265625 -0.3125 C 1.296875 -0.320312 1.320312 -0.328125 1.34375 -0.328125 C 1.363281 -0.335938 1.378906 -0.347656 1.390625 -0.359375 C 1.410156 -0.367188 1.429688 -0.375 1.453125 -0.375 C 1.453125 -0.375 1.457031 -0.367188 1.46875 -0.359375 C 1.476562 -0.359375 1.484375 -0.351562 1.484375 -0.34375 C 1.492188 -0.332031 1.5 -0.316406 1.5 -0.296875 C 1.5 -0.273438 1.5 -0.25 1.5 -0.21875 Z M 1.5 -0.21875 "/></g></g></g></svg>